<?xml version="1.0" encoding="UTF-8" standalone="no"?>
<!-- Created with Inkscape (http://www.inkscape.org/) -->

<svg
   width="4000"
   height="2667"
   viewBox="0 0 1058.3333 705.64375"
   version="1.1"
   id="svg1"
   xml:space="preserve"
   inkscape:version="1.4.2 (ebf0e940d0, 2025-05-08)"
   sodipodi:docname="beach.svg"
   inkscape:export-filename="beach.png"
   inkscape:export-xdpi="96"
   inkscape:export-ydpi="96"
   xmlns:inkscape="http://www.inkscape.org/namespaces/inkscape"
   xmlns:sodipodi="http://sodipodi.sourceforge.net/DTD/sodipodi-0.dtd"
   xmlns:xlink="http://www.w3.org/1999/xlink"
   xmlns="http://www.w3.org/2000/svg"
   xmlns:svg="http://www.w3.org/2000/svg"><sodipodi:namedview
     id="namedview1"
     pagecolor="#ffffff"
     bordercolor="#000000"
     borderopacity="0.25"
     inkscape:showpageshadow="2"
     inkscape:pageopacity="0.0"
     inkscape:pagecheckerboard="0"
     inkscape:deskcolor="#d1d1d1"
     inkscape:document-units="mm"
     inkscape:zoom="0.25000001"
     inkscape:cx="1707.9999"
     inkscape:cy="1591.9999"
     inkscape:window-width="1920"
     inkscape:window-height="1168"
     inkscape:window-x="1600"
     inkscape:window-y="0"
     inkscape:window-maximized="1"
     inkscape:current-layer="layer3"
     showguides="true" /><defs
     id="defs1"><linearGradient
       id="linearGradient65"
       inkscape:collect="always"><stop
         style="stop-color:#d45500;stop-opacity:1;"
         offset="0"
         id="stop65" /><stop
         style="stop-color:#d45500;stop-opacity:0;"
         offset="1"
         id="stop66" /></linearGradient><filter
       inkscape:collect="always"
       style="color-interpolation-filters:sRGB"
       id="filter265"
       x="-0.014845404"
       y="-0.048089201"
       width="1.0296908"
       height="1.0961784"><feGaussianBlur
         inkscape:collect="always"
         stdDeviation="0.66735536"
         id="feGaussianBlur265" /></filter><filter
       inkscape:collect="always"
       style="color-interpolation-filters:sRGB"
       id="filter266"
       x="-0.015281685"
       y="-0.045219318"
       width="1.0305634"
       height="1.0904386"><feGaussianBlur
         inkscape:collect="always"
         stdDeviation="0.66735536"
         id="feGaussianBlur266" /></filter><filter
       inkscape:collect="always"
       style="color-interpolation-filters:sRGB"
       id="filter267"
       x="-0.011993753"
       y="-0.034640765"
       width="1.0239875"
       height="1.0692815"><feGaussianBlur
         inkscape:collect="always"
         stdDeviation="0.66735536"
         id="feGaussianBlur267" /></filter><filter
       inkscape:collect="always"
       style="color-interpolation-filters:sRGB"
       id="filter268"
       x="-0.014845404"
       y="-0.048089206"
       width="1.0296908"
       height="1.0961784"><feGaussianBlur
         inkscape:collect="always"
         stdDeviation="0.66735536"
         id="feGaussianBlur268" /></filter><linearGradient
       inkscape:collect="always"
       xlink:href="#linearGradient65"
       id="linearGradient66"
       x1="696.54071"
       y1="379.22324"
       x2="735.41589"
       y2="354.88156"
       gradientUnits="userSpaceOnUse" /><filter
       inkscape:collect="always"
       style="color-interpolation-filters:sRGB"
       id="filter23"
       x="-0.078649852"
       y="-0.12504649"
       width="1.1572997"
       height="1.250093"><feGaussianBlur
         inkscape:collect="always"
         stdDeviation="1.5702715"
         id="feGaussianBlur23" /></filter><filter
       inkscape:collect="always"
       style="color-interpolation-filters:sRGB"
       id="filter25"
       x="-0.053561644"
       y="-0.23853301"
       width="1.1071233"
       height="1.477066"><feGaussianBlur
         inkscape:collect="always"
         stdDeviation="6.7049779"
         id="feGaussianBlur25" /></filter><filter
       inkscape:collect="always"
       style="color-interpolation-filters:sRGB"
       id="filter32"
       x="-0.011878813"
       y="-0.011375206"
       width="1.0237576"
       height="1.0227504"><feGaussianBlur
         inkscape:collect="always"
         stdDeviation="0.8429716"
         id="feGaussianBlur32" /></filter><filter
       inkscape:collect="always"
       style="color-interpolation-filters:sRGB"
       id="filter78"
       x="-0.056610977"
       y="-0.19238356"
       width="1.113222"
       height="1.3847671"><feGaussianBlur
         inkscape:collect="always"
         stdDeviation="5.6623886"
         id="feGaussianBlur78" /></filter><filter
       inkscape:collect="always"
       style="color-interpolation-filters:sRGB"
       id="filter114"
       x="-0.013055425"
       y="-0.011176881"
       width="1.0285054"
       height="1.0243032"><feGaussianBlur
         inkscape:collect="always"
         stdDeviation="1.210827"
         id="feGaussianBlur114" /></filter><filter
       inkscape:collect="always"
       style="color-interpolation-filters:sRGB"
       id="filter118"
       x="-0.057088261"
       y="-0.18706858"
       width="1.1141765"
       height="1.3741372"><feGaussianBlur
         inkscape:collect="always"
         stdDeviation="4.0201598"
         id="feGaussianBlur118" /></filter></defs><g
     inkscape:groupmode="layer"
     id="layer2"
     inkscape:label="layer 1"
     style="display:inline"
     sodipodi:insensitive="true"><rect
       style="display:inline;opacity:1;fill:#164450;stroke-width:0.10574;stroke-linecap:round;stroke-linejoin:round;paint-order:markers fill stroke"
       id="rect2"
       width="1058.332"
       height="705.64233"
       x="0.00057051907"
       y="0.00094525376" /><rect
       style="display:inline;opacity:1;fill:#5599ff;stroke-width:0.10574;stroke-linecap:round;stroke-linejoin:round;paint-order:markers fill stroke"
       id="rect3"
       width="1058.332"
       height="705.64233"
       x="0.00057051907"
       y="0.00094525376" /><g
       transform="matrix(-0.05659684,0.00376344,0.0039271,0.05905796,540.55725,360.38438)"
       id="g39"
       style="opacity:0.8;fill:#000000;filter:url(#filter114)"><rect
         transform="rotate(-0.92307)"
         x="335.45999"
         y="165.17999"
         width="6.7684002"
         height="218.21001"
         rx="1.1307"
         ry="1.2673"
         fill="url(#v)"
         stroke="#1a1a1a"
         id="rect15"
         style="fill:#000000" /><path
         d="m 310.36,391.65 17.14,-14.29 80.714,-3.2143 2.1428,6.4286 v 7.1428 z"
         fill="url(#w)"
         stroke="#000000"
         stroke-width="1px"
         id="path16-5"
         style="fill:#000000" /><path
         d="m 248.21,390.93 26.429,23.571 2.8571,3.9286 186.79,-5 5,-3.9286 0.35715,-1.0714 -3.2143,-7.5 -3.5714,-10.357 -3.2143,-5.3572 -60.714,-1.0714 -2.1429,3.9286 -148.57,0.71428 z"
         fill="url(#x)"
         stroke="#000000"
         stroke-width="1px"
         id="path17-3"
         style="fill:#000000" /><rect
         x="337.67999"
         y="158.42999"
         width="7.8571"
         height="1.9643"
         rx="1.1307"
         ry="1.2673"
         id="rect17"
         style="fill:#000000" /><path
         d="m 246.96,390.04 216.07,0.53572"
         fill="none"
         stroke="#000000"
         stroke-width="1px"
         id="path20-5"
         style="fill:#000000" /><path
         d="M 338.4,160.65 252.54,388.69"
         fill="none"
         stroke="#000000"
         stroke-width="1px"
         id="path23-6"
         style="fill:#000000" /><path
         d="m 338.53,363.82 3.4093,2.9042"
         fill="none"
         stroke="#000000"
         stroke-width="1px"
         id="path24-2"
         style="fill:#000000" /><path
         d="m 254.31,383.64 c 30.372,-3.0872 58.246,-9.9154 84.6,-19.698 -25.271,-60.225 -32.548,-120.49 -8.7757,-181.39 z"
         fill="url(#y)"
         stroke="#000000"
         stroke-width="1px"
         id="path27-9"
         style="fill:#000000" /><path
         d="m 348.5,359.14 62.629,-3.283 c -31.582,-61.763 -56.715,-125.48 -66.165,-193.95 z"
         fill="url(#z)"
         stroke="#000000"
         stroke-width="1px"
         id="path28-1"
         style="fill:#000000" /></g><path
       id="rect1"
       style="display:inline;opacity:1;fill:#006680;stroke-width:0.104985;stroke-linecap:round;stroke-linejoin:round;paint-order:markers fill stroke"
       d="M 8.9529814e-4,386.30999 C 24.817405,385.13869 97.56587,383.74044 133.26944,384.62611 c 123.21139,4.47841 182.62035,3.2865 304.52553,3.05316 269.69563,-4.83721 304.40468,-8.20064 451.23997,-3.40699 67.91735,2.24362 115.92166,-0.24022 169.29826,2.03771 V 705.64404 H 8.9529814e-4 Z"
       sodipodi:nodetypes="cccccccc" /><path
       style="display:inline;opacity:0.220814;fill:#e6e6e6;stroke:none;stroke-width:0.1;stroke-linecap:round;stroke-linejoin:round;stroke-dasharray:none;paint-order:markers fill stroke;filter:url(#filter267)"
       d="m 301.16325,136.78836 c -7.50003,0.0567 -5.33994,-11.70015 1.05833,-18.65312 10.18634,-10.29868 20.00774,-5.50982 27.51667,-1.98438 0.75245,-12.82094 10.35529,-25.377663 32.14687,-25.400003 19.05869,0.14043 35.28769,9.718403 32.41146,29.501053 4.65305,-3.05568 13.51276,-6.59026 25.00313,-2.11667 7.3828,2.76887 15.97766,18.90406 6.41615,18.85156 z"
       id="path261"
       sodipodi:nodetypes="cccccccc" /><path
       style="display:inline;opacity:0.220814;fill:#e6e6e6;stroke:none;stroke-width:0.1;stroke-linecap:round;stroke-linejoin:round;stroke-dasharray:none;paint-order:markers fill stroke;filter:url(#filter266)"
       d="m 589.9841,99.156992 c -5.55557,-0.0342 -2.52635,-6.74859 1.21609,-8.88671 6.5836,-3.1801 14.31436,0.25302 13.33005,-0.44434 -2.40713,-1.70537 1.17222,-10.45864 7.9045,-12.55833 5.60784,-1.81013 10.756,-1.91023 15.6219,0.0935 1.57305,-6.666867 5.57461,-12.213847 19.08304,-13.376837 7.55411,-0.42332 13.51409,1.23522 16.37028,10.196327 9.92869,-2.146557 19.98738,-4.753997 25.91178,7.29646 6.23143,15.4748 -1.04384,17.76196 -10.47699,17.86696 z"
       id="path262"
       sodipodi:nodetypes="ccsccccccc" /><path
       style="display:inline;opacity:0.220814;fill:#e6e6e6;stroke:none;stroke-width:0.1;stroke-linecap:round;stroke-linejoin:round;stroke-dasharray:none;paint-order:markers fill stroke;filter:url(#filter265)"
       d="m 932.31999,188.50795 c -5.38753,0.12063 0.41141,-9.28288 5.55625,-10.58334 3.48847,-0.73081 7.29996,-0.85146 11.90625,0.52917 0.29094,-5.24605 2.64742,-9.28555 10.58334,-11.50937 5.96806,-1.62987 11.87468,-1.8157 17.59479,2.38125 2.02411,-8.25688 7.20148,-14.89393 27.25208,-13.89063 10.599,0.93281 20.9592,11.29466 17.5948,20.76979 5.1201,-1.39829 9.8146,-1.64493 12.8323,2.64584 3.0891,4.07281 3.4371,9.814 -0.2646,9.78958 z"
       id="path263"
       sodipodi:nodetypes="cccccccccc" /><path
       style="display:inline;opacity:0.220814;fill:#e6e6e6;stroke:none;stroke-width:0.1;stroke-linecap:round;stroke-linejoin:round;stroke-dasharray:none;paint-order:markers fill stroke;filter:url(#filter268)"
       d="m 200.73569,112.17577 c 5.38753,0.12063 -0.41141,-9.28288 -5.55625,-10.58334 -3.48847,-0.73081 -7.29996,-0.85146 -11.90625,0.52917 -0.29094,-5.246047 -2.64742,-9.285547 -10.58334,-11.509367 -5.96806,-1.62987 -11.87468,-1.8157 -17.59479,2.38125 -2.02411,-8.25688 -7.20148,-14.89393 -27.25208,-13.89063 -10.599,0.93281 -20.9592,11.29466 -17.5948,20.76979 -5.1201,-1.39829 -9.8146,-1.64493 -12.832303,2.645837 -3.0891,4.07281 -3.4371,9.814 0.2646,9.78958 z"
       id="path264"
       sodipodi:nodetypes="cccccccccc" /><path
       id="path1"
       style="display:inline;opacity:1;fill:#00ccff;stroke-width:0.0961261;stroke-linecap:round;stroke-linejoin:round;paint-order:markers fill stroke"
       d="M -0.00180557,437.83606 C 24.814704,436.85409 105.04672,429.36342 133.26674,436.42437 c 55.18699,13.59863 99.54376,8.11921 143.61278,2.71512 50.94724,-6.24756 97.20743,1.81508 160.91275,-0.15548 43.7384,-0.65768 82.33622,-7.33671 116.16987,-5.38318 43.50782,2.51212 82.55159,7.72056 93.74444,7.11435 34.78167,-1.88383 54.41536,4.20486 76.7498,4.13866 26.7074,-0.0792 51.46336,14.82272 76.14756,11.18646 16.28672,-2.39922 32.93827,-4.2148 51.37266,-2.34442 13.31938,1.3514 28.19733,-4.83591 52.02273,2.08925 25.13871,0.69621 45.49881,-1.84365 63.88042,-5.22253 31.28008,-5.74987 56.83075,-13.92939 90.45075,-12.72654 V 705.55194 H -0.00180557 Z"
       sodipodi:nodetypes="ccscssssscscccc" /><path
       id="path2"
       style="display:inline;opacity:1;fill:#ffe680;stroke-width:0.0831487;stroke-linecap:round;stroke-linejoin:round;paint-order:markers fill stroke"
       d="M 0.00225305,452.98371 C 24.818763,452.24899 87.183807,446.88177 122.88738,447.43733 c 123.21139,2.80918 166.06164,-5.45606 287.96682,-5.60243 269.69563,-3.03425 371.7566,0.84281 485.66429,59.22797 72.40747,34.33497 120.33661,7.87761 161.81471,9.93691 V 705.64404 H 8.9529814e-4 Z"
       sodipodi:nodetypes="cccccccc" /><path
       style="display:inline;opacity:1;fill:#00ccff;stroke:none;stroke-width:0.126757;stroke-linecap:round;stroke-linejoin:round;paint-order:markers fill stroke"
       d="m 962.47928,408.79352 c -18.43189,0.6348 -27.94674,-0.86389 -50.82656,3.83272 -5.65664,1.26898 -42.80216,0.53067 -51.47123,-2.2986 27.82787,0.86652 47.44686,-0.21152 68.76898,-3.12511 20.05628,-2.50258 22.94435,0.85854 33.52881,1.59099 z"
       id="path5"
       sodipodi:nodetypes="ccccc" /><path
       style="display:inline;opacity:1;fill:#00ccff;stroke:none;stroke-width:0.096504;stroke-linecap:round;stroke-linejoin:round;paint-order:markers fill stroke"
       d="m 469.70764,419.64762 c -14.66578,0.46243 -22.2365,-0.62931 -40.44138,2.792 -4.50085,0.92441 -34.05658,0.38658 -40.95433,-1.67444 22.14192,0.63122 37.75224,-0.1541 54.7177,-2.27654 15.95826,-1.82305 18.25623,0.62541 26.67801,1.15898 z"
       id="path7"
       sodipodi:nodetypes="ccccc" /><path
       style="display:inline;opacity:1;fill:#80e5ff;stroke:none;stroke-width:0.096504;stroke-linecap:round;stroke-linejoin:round;paint-order:markers fill stroke"
       d="m 346.97747,415.06563 c -14.66578,-0.46243 -22.2365,0.62931 -40.44138,-2.792 -4.50085,-0.92441 -34.05658,-0.38658 -40.95433,1.67444 22.14192,-0.63122 37.75224,0.1541 54.7177,2.27654 15.95826,1.82305 18.25623,-0.62541 26.67801,-1.15898 z"
       id="path8"
       sodipodi:nodetypes="ccccc" /><path
       style="display:inline;opacity:1;fill:#80e5ff;stroke:none;stroke-width:0.0718033;stroke-linecap:round;stroke-linejoin:round;paint-order:markers fill stroke"
       d="m 155.32215,404.85681 c 6.65442,0.40845 9.85269,2.22803 18.61981,-0.70779 2.18151,-0.82082 15.33041,1.77949 18.05455,4.72669 -9.80996,-2.2241 -16.94513,-2.30444 -24.92561,-0.85738 -7.47583,1.1515 -8.06973,-1.96071 -11.74875,-3.16152 z"
       id="path9"
       sodipodi:nodetypes="ccccc" /><path
       style="display:inline;opacity:1;fill:#00ccff;stroke:none;stroke-width:0.0926005;stroke-linecap:round;stroke-linejoin:round;paint-order:markers fill stroke"
       d="m 16.502358,404.85681 c 11.067466,0.40845 16.38675,2.22803 30.968007,-0.70779 3.628233,-0.82082 25.497159,1.77949 30.027879,4.72669 -16.315682,-2.2241 -28.182719,-2.30444 -41.455656,-0.85738 -12.433615,1.1515 -13.421375,-1.96071 -19.54023,-3.16152 z"
       id="path10"
       sodipodi:nodetypes="ccccc" /><path
       style="display:inline;opacity:1;fill:#00ccff;stroke:none;stroke-width:0.0926005;stroke-linecap:round;stroke-linejoin:round;paint-order:markers fill stroke"
       d="m 94.290471,423.33669 c 11.074099,0.14139 16.477139,-1.41192 30.894699,2.24402 3.58302,0.9999 25.55406,-0.51173 30.22548,-3.23042 -16.40596,1.41153 -28.26236,0.90274 -41.44712,-1.20134 -12.36112,-1.76723 -13.50214,1.29212 -19.673059,2.18774 z"
       id="path11"
       sodipodi:nodetypes="ccccc" /><path
       style="display:inline;opacity:1;fill:#aaeeff;stroke:none;stroke-width:0.083563;stroke-linecap:round;stroke-linejoin:round;paint-order:markers fill stroke"
       d="m 1042.1189,461.23268 c -9.8985,0.51371 -15.0084,-0.69909 -27.2956,3.1016 -3.0378,1.02691 -22.98622,0.42944 -27.6418,-1.86012 14.9445,0.70122 25.4806,-0.17118 36.9313,-2.52897 10.7709,-2.0252 12.3219,0.69476 18.0061,1.28749 z"
       id="path13"
       sodipodi:nodetypes="ccccc" /><path
       style="display:inline;opacity:1;fill:#aaeeff;stroke:none;stroke-width:0.083563;stroke-linecap:round;stroke-linejoin:round;paint-order:markers fill stroke"
       d="m 1023.439,487.53458 c -9.8735,0.87007 -14.7647,2.7828 -27.46155,0.73066 -3.15123,-0.59376 -22.82196,2.77651 -27.11324,5.69223 14.70114,-2.77601 25.25605,-3.3797 36.92359,-2.63987 10.948,0.50517 12.105,-2.40431 17.6512,-3.78302 z"
       id="path14"
       sodipodi:nodetypes="ccccc" /><path
       style="display:inline;opacity:1;fill:#28170b;stroke:none;stroke-width:0.1;stroke-linecap:round;stroke-linejoin:round;paint-order:markers fill stroke"
       d="m 392.64166,472.81041 c -1.09403,-41.77194 -0.0392,-85.18815 14.87678,-139.73066 10.44956,-38.21047 21.04485,-82.52434 60.0003,-137.55267 l 5.55625,2.91042 c -27.01125,51.34105 -42.74591,93.59305 -48.99767,139.11049 -5.3901,39.24384 -11.74017,83.74539 -4.71274,137.90825 z"
       id="path15"
       sodipodi:nodetypes="csccscc" /><path
       id="path16"
       style="display:inline;opacity:1;fill:#784421;stroke:none;stroke-width:0.1;stroke-linecap:round;stroke-linejoin:round;paint-order:markers fill stroke"
       d="m 467.51875,195.52708 c -11.33826,16.0164 -20.27378,31.12535 -27.50271,45.44012 3.46714,1.17537 7.09147,2.28431 11.00398,3.27216 6.28899,-14.63202 13.62256,-29.77411 22.05498,-45.80186 z m -28.78067,47.99759 c -2.06278,4.17413 -3.98194,8.28037 -5.77536,12.32173 3.78951,1.05309 7.88016,1.96683 12.13983,2.80293 1.82542,-4.67118 3.76005,-9.38301 5.80533,-14.14901 -4.27177,-0.68356 -8.38878,-1.10999 -12.1698,-0.97565 z m -7.05228,15.23628 c -1.68777,3.90396 -3.26013,7.74728 -4.73357,11.53211 4.26547,0.87429 8.52605,1.78104 12.7429,2.99569 1.6071,-4.6258 3.32254,-9.27926 5.148,-13.97331 -4.37043,-0.33805 -8.75121,-0.57338 -13.15733,-0.55449 z m -6.22702,15.43627 c -2.04988,5.45642 -3.90146,10.79123 -5.60482,16.01246 4.53192,0.57392 9.09196,1.19927 13.80277,2.10116 1.72215,-6.00446 3.62631,-12.02463 5.71645,-18.09089 -5.28518,-0.28499 -9.80073,-0.23982 -13.9144,-0.0227 z m -6.60734,19.12441 c -1.66961,5.24979 -3.19707,10.38476 -4.63486,15.41301 4.6187,0.96029 9.49625,1.7824 14.61047,2.47841 1.21365,-5.41779 2.5717,-10.82315 4.07728,-16.23777 -4.54656,-0.74394 -9.18028,-1.3662 -14.05289,-1.65365 z m -5.75572,19.37195 c -1.54445,5.50892 -2.99565,10.88985 -4.42506,16.15456 5.51419,0.10868 10.9982,0.74469 16.47342,1.53531 0.91486,-5.70023 1.98202,-11.3586 3.20497,-17.00051 -5.09251,-0.65011 -10.14333,-0.77721 -15.25333,-0.68936 z m 11.82253,19.11976 c -5.88017,-0.15742 -11.71655,-0.26182 -17.1018,0.17466 -0.0994,0.36459 -0.19877,0.72845 -0.29817,1.09193 -1.44801,5.29484 -2.76561,10.48458 -3.96307,15.57837 6.19353,1.13615 12.44179,2.03729 18.49448,3.78375 0.67247,-5.05173 1.35744,-10.01357 2.02778,-14.89418 0.26331,-1.91704 0.54369,-3.82817 0.84078,-5.73453 z m -13.08654,21.29276 c -3.2202,0.0408 -6.32529,0.21231 -9.39219,0.42684 -1.46815,6.588 -2.73669,13.01583 -3.82974,19.30322 6.83058,1.61011 14.78295,3.03312 18.23454,5.2064 -7.13755,-0.15554 -13.31585,0.0584 -19.16885,0.39687 -1.1479,7.19309 -2.06956,14.20521 -2.80241,21.06642 7.51255,0.61467 15.14239,1.07047 22.13249,2.39417 1.00197,-17.1198 2.88916,-33.18894 4.90875,-48.43839 -3.52698,-0.30689 -6.86239,-0.39634 -10.08259,-0.35553 z m -17.41496,50.90387 c -0.75322,7.85586 -1.26512,15.51921 -1.5937,23.03683 7.77461,0.34398 15.5834,0.89264 23.4394,1.72496 -0.0409,-8.35715 0.18397,-16.46945 0.60254,-24.35872 -8.48738,0.60867 -17.85858,0.81156 -22.44824,-0.40307 z m 21.86585,27.28205 c -9.41264,1.20191 -18.34235,1.9307 -23.65489,0.82527 -0.25038,7.50494 -0.328,14.87291 -0.29197,22.15162 4.52821,-1.06809 9.06399,-2.08338 13.79968,-1.69912 4.64274,0.60181 7.42018,1.15274 11.0665,1.2914 -0.54611,-7.72101 -0.83657,-15.239 -0.91932,-22.56917 z m 0.93379,22.77122 c -9.10001,1.16494 -17.2301,2.58376 -24.84757,4.40438 0.0516,4.81155 0.14831,9.58785 0.27285,14.3428 l 26.72291,2.64583 c -0.94754,-7.30302 -1.65192,-14.43049 -2.14819,-21.39301 z" /><path
       style="display:inline;opacity:1;fill:#217821;stroke:none;stroke-width:0.1;stroke-linecap:round;stroke-linejoin:round;paint-order:markers fill stroke"
       d="m 397.66874,122.50208 c 15.81739,-5.41229 39.21024,-5.54478 58.7375,13.75833 12.30272,14.69143 19.08782,30.6575 18.78542,50.8 1.88926,-20.44252 11.60668,-36.97096 30.42708,-48.94791 11.68123,-6.58104 24.21927,-9.97964 38.36459,-7.40833 12.85041,2.87176 18.64199,10.20676 22.36532,15.25366 -3.29547,-0.58141 -6.53951,-1.24852 -10.19449,-1.23075 -4.93026,-2.26285 -9.59853,-3.60874 -14.2875,-5.02708 2.59805,1.90725 5.30389,3.49112 7.67292,6.08541 -5.89858,1.70761 -11.48538,3.5538 -16.26661,5.75801 -3.29268,-3.53956 -7.6525,-4.94486 -12.04381,-6.28717 3.71892,2.39594 6.96981,5.32514 8.82479,8.09386 -4.49459,2.16424 -8.94889,4.29514 -13.07417,6.58248 -3.73232,-1.73194 -6.80578,-3.48116 -11.95303,-4.62356 2.60698,2.34285 5.22798,4.68102 7.47116,7.14513 -10.65282,7.03946 -21.19379,14.10821 -26.72292,22.48959 -2.89777,4.34669 -2.35133,9.23627 0.0943,9.0672 24.19093,0.77658 38.35585,11.30067 49.95268,24.32152 11.29303,13.09296 14.15942,36.13592 -2.32257,56.40252 -1.62095,-5.7078 -3.28149,-11.42055 -6.28351,-17.30098 1.52646,-5.39581 3.39229,-10.45227 3.92885,-16.83798 0.32095,0.25676 -6.10094,13.92626 -5.98683,12.53493 0.14404,-1.75625 -8.70383,-16.64245 -9.16734,-15.71544 1.8511,-4.08574 2.11911,-10.74401 2.61925,-17.02507 -1.71073,4.49862 -3.57579,8.68859 -5.98684,11.78658 -3.25016,-4.973 -6.54863,-9.8397 -10.66406,-12.90911 1.1143,-3.65941 0.40893,-8.41062 -0.18708,-13.09621 -0.84809,3.16812 -1.64871,6.4312 -3.18051,8.2319 -5.37248,-6.27955 -10.09155,-9.50984 -14.9671,-13.47038 -8.93484,3.4012 -10.95043,2.11517 -14.78,2.05797 l -6.17392,-2.43215 c -0.70858,-0.44286 -16.05598,7.88255 -17.39926,9.16735 -0.4652,0.44495 0.0753,-12.25066 0.56128,-12.34786 -1.9439,4.38515 -3.9605,8.47954 -5.42557,14.78001 -6.72865,2.07977 -12.76835,6.83025 -18.80241,11.22531 -1.43906,-5.32776 -1.49147,-9.26474 -0.93545,-13.0962 -3.09981,2.9819 -4.06241,10.84883 -5.51913,17.58634 -3.64859,2.07265 -6.52314,6.0804 -9.7286,9.26089 -2.32075,-6.63555 -1.84016,-10.97907 -1.49672,-15.43482 -2.55085,5.20388 -3.8021,11.01424 -2.61924,17.96051 -4.79217,3.72194 -8.60581,9.20523 -12.16075,15.15418 -7.26827,-21.67582 -1.40401,-31.01933 5.61265,-39.28862 12.91667,-12.91985 22.45085,-27.88196 60.80382,-25.44405 8.50015,1.44064 10.42103,-0.01 8.79316,-5.98684 -5.62606,-14.16845 -19.56719,-24.7733 -31.80506,-36.10812 3.59104,-0.99159 8.27605,-0.67042 13.09619,-0.18709 -7.40993,-4.09345 -10.9268,-3.20712 -16.18315,-2.99341 -5.3823,-5.59192 -10.65202,-8.58542 -14.3123,-11.22532 4.62057,-0.75968 8.12136,-2.01703 14.78002,-1.87089 -6.17393,-1.91399 -12.34785,-1.58029 -18.52178,-1.87089 -3.64368,-3.38189 -8.94579,-5.10536 -13.73927,-7.33745 z"
       id="path26"
       sodipodi:nodetypes="cccccccccccccccccccccscccccccccsccccccccccccccccccc" /><path
       style="display:inline;opacity:1;fill:#008000;stroke:none;stroke-width:0.1;stroke-linecap:round;stroke-linejoin:round;paint-order:markers fill stroke"
       d="m 367.81631,179.60512 c 5.08943,-14.3454 16.15901,-24.94325 47.52052,-22.82482 15.917,1.50381 33.80601,7.91859 49.39141,27.68912 1.17394,-2.72368 12.50138,-8.57445 21.32811,1.12254 8.46844,-10.0296 26.91093,-15.38353 53.50735,-10.85115 30.28093,7.39168 38.51475,32.36149 39.66281,46.02382 -5.9503,-5.20953 -9.92531,-5.4808 -14.5929,-7.48355 0.19959,-5.73739 -4.79685,-11.47477 -8.98028,-17.21216 1.49019,4.40589 4.28826,10.06605 3.87408,14.15454 L 547.7956,204.7204 c -0.71168,-4.68868 -3.62332,-9.59736 -7.8577,-14.63831 0.67449,4.20374 2.05023,8.75811 0.74835,11.97367 -4.91964,-1.75931 -9.99641,-4.61861 -14.59291,-4.11595 -1.67257,-3.54616 -4.44273,-6.90939 -8.2319,-10.10279 1.55954,3.3676 2.85562,6.20603 2.52844,9.57362 -17.00787,-4.77929 -22.12244,-3.01727 -32.83681,-4.33514 3.01514,6.33539 -0.0241,7.7807 -3.36761,8.98026 11.72044,15.7144 16.21813,29.43633 13.47038,41.15951 -4.20408,30.51893 -9.61912,32.35483 -18.94273,40.50468 -0.12476,-2.89987 -0.63067,-5.79973 -1.63701,-8.6996 3.91754,-5.04996 5.99634,-12.39835 8.60608,-19.08306 -3.7577,4.69535 -8.51601,11.47652 -10.76426,12.4821 -0.45525,-4.90905 -1.36897,-9.81811 -2.70613,-14.72716 3.52895,-2.84587 7.14582,-6.83475 10.85115,-11.97367 -4.34497,2.72636 -8.94693,5.39077 -11.88678,5.83379 0.52631,-5.5381 0.35177,-11.7202 -0.88064,-18.84116 3.50745,-0.46924 7.0149,-4.01349 10.52235,-8.69492 -3.83016,2.77042 -7.57155,4.38694 -11.22532,4.86431 2.34039,-6.3989 0.81461,-15.12772 1.12255,-22.07647 -5.34544,-0.0627 -11.01651,1.56034 -13.47039,-13.47038 -7.97535,-1.72484 -15.94291,-3.42632 -23.57319,-4.11595 2.08654,-0.89562 2.43257,-2.95157 2.99342,-4.86431 -1.36746,2.05355 -3.98381,2.70773 -6.91091,3.89482 -5.60598,-1.62556 -10.19609,-1.72733 -15.16555,-2.39811 1.55749,-4.72827 5.57633,-7.65155 9.72862,-10.47696 -5.11376,1.75953 -9.63221,4.78704 -14.74597,9.15794 l -17.12526,-2.61924 c 2.5542,-4.97299 6.21642,-7.72996 9.79477,-10.65465 -6.59646,1.55273 -12.41581,6.21391 -18.3347,10.47696 -5.22507,-1.5866 -10.70569,0.91551 -16.08963,1.87089 z"
       id="path27"
       sodipodi:nodetypes="cccccccccccccccccccccccccccccccccccccccc" /><path
       style="display:inline;opacity:1;fill:#00ccff;stroke:none;stroke-width:0.1;stroke-linecap:round;stroke-linejoin:round;paint-order:markers fill stroke"
       d="m 587.1879,400.01514 c 11.48349,0.36456 17.36848,-1.27312 31.71515,3.08696 3.54951,1.18575 26.64454,-0.0966 31.97194,-3.05211 -17.29445,1.27402 -29.52702,0.48372 -42.8625,-2.11666 -12.53818,-2.20803 -14.25605,1.19447 -20.82459,2.08181 z"
       id="path3"
       sodipodi:nodetypes="ccccc" /><path
       style="display:inline;opacity:1;fill:#00ccff;stroke:none;stroke-width:0.1;stroke-linecap:round;stroke-linejoin:round;paint-order:markers fill stroke"
       d="m 741.55219,406.14769 c -11.47173,0.6348 -17.39363,-0.86389 -31.63369,3.83272 -3.52061,1.26898 -26.63943,0.53067 -32.03493,-2.2986 17.31965,0.86652 29.53022,-0.21152 42.80079,-3.12511 12.48273,-2.50258 14.28022,0.85854 20.86783,1.59099 z"
       id="path4"
       sodipodi:nodetypes="ccccc" /><path
       style="display:inline;opacity:1;fill:#00ccff;stroke:none;stroke-width:0.101714;stroke-linecap:round;stroke-linejoin:round;paint-order:markers fill stroke"
       d="m 834.15637,427.89517 c -14.66578,0.51371 -22.2365,-0.69909 -40.44138,3.1016 -4.50085,1.02691 -34.05658,0.42944 -40.95433,-1.86012 22.14192,0.70122 37.75224,-0.17118 54.7177,-2.52897 15.95826,-2.0252 18.25623,0.69476 26.67801,1.28749 z"
       id="path6"
       sodipodi:nodetypes="ccccc" /><path
       style="display:inline;opacity:1;fill:#aaeeff;stroke:none;stroke-width:0.101714;stroke-linecap:round;stroke-linejoin:round;paint-order:markers fill stroke"
       d="m 919.35221,463.87851 c -14.66578,0.51371 -22.2365,-0.69909 -40.44138,3.1016 -4.50085,1.02691 -34.05658,0.42944 -40.95433,-1.86012 22.14192,0.70122 37.75224,-0.17118 54.7177,-2.52897 15.95826,-2.0252 18.25623,0.69476 26.67801,1.28749 z"
       id="path12"
       sodipodi:nodetypes="ccccc" /><path
       style="display:inline;opacity:1;fill:#784421;stroke:none;stroke-width:0.1;stroke-linecap:round;stroke-linejoin:round;stroke-dasharray:none;paint-order:markers fill stroke"
       d="m 604.34967,592.03233 c 3.906,0.0504 2.9752,-1.6489 2.07503,-2.57535 -2.93607,-2.14914 -6.83996,-3.23821 -11.66582,-3.31743 -2.33467,0.36728 -4.59971,-0.051 -5.53478,3.85832 -0.60575,2.84814 0.76029,2.8691 2.15115,2.85454 3.53992,-0.77802 8.07781,-0.91437 12.97442,-0.82008 z"
       id="path79"
       sodipodi:nodetypes="cccccc" /><path
       style="display:inline;opacity:1;fill:#784421;stroke:none;stroke-width:0.1;stroke-linecap:round;stroke-linejoin:round;stroke-dasharray:none;paint-order:markers fill stroke"
       d="m 506.72956,664.38792 c -3.90416,0.13025 -3.0083,-1.58772 -2.12727,-2.53238 2.89151,-2.20872 6.77231,-3.3774 11.59554,-3.55529 2.3417,0.31946 4.59771,-0.14502 5.61252,3.74433 0.66388,2.83516 -0.70145,2.88405 -2.09232,2.89793 -3.55508,-0.70547 -8.09482,-0.74899 -12.98847,-0.55459 z"
       id="path80"
       sodipodi:nodetypes="cccccc" /><path
       style="display:inline;opacity:1;fill:#784421;stroke:none;stroke-width:0.1;stroke-linecap:round;stroke-linejoin:round;stroke-dasharray:none;paint-order:markers fill stroke"
       d="m 813.72603,674.29062 c -1.41144,1.98874 6.56067,1.10188 10.05417,1.5875 0.93489,0.19403 -0.73069,-2.15289 -2.77813,-3.43959 -5.34205,-0.4764 -6.19422,0.60688 -7.27604,1.85209 z"
       id="path82"
       sodipodi:nodetypes="cccc" /><path
       style="display:inline;opacity:1;fill:#784421;stroke:none;stroke-width:0.126146;stroke-linecap:round;stroke-linejoin:round;stroke-dasharray:none;paint-order:markers fill stroke"
       d="m 842.33865,659.79315 c -1.73194,2.57903 8.05044,1.42893 12.33723,2.05869 1.14719,0.25162 -0.89661,-2.7919 -3.40897,-4.46051 -6.55511,-0.61781 -7.60078,0.78701 -8.92826,2.40182 z"
       id="path83"
       sodipodi:nodetypes="cccc" /><path
       style="display:inline;opacity:1;fill:#784421;stroke:none;stroke-width:0.126146;stroke-linecap:round;stroke-linejoin:round;stroke-dasharray:none;paint-order:markers fill stroke"
       d="m 860.09154,584.12232 c 1.73194,2.57903 -8.05044,1.42893 -12.33723,2.05869 -1.14719,0.25162 0.89661,-2.7919 3.40897,-4.46051 6.55511,-0.61781 7.60078,0.78701 8.92826,2.40182 z"
       id="path84"
       sodipodi:nodetypes="cccc" /><path
       style="display:inline;opacity:1;fill:#784421;stroke:none;stroke-width:0.1;stroke-linecap:round;stroke-linejoin:round;stroke-dasharray:none;paint-order:markers fill stroke"
       d="m 876.20043,620.9279 c 3.89803,0.25436 3.05727,-1.49124 2.20672,-2.46345 -2.8198,-2.29957 -6.66148,-3.59107 -11.47661,-3.92226 -2.35067,0.24483 -4.59077,-0.2912 -5.72876,3.56394 -0.7537,2.81261 0.60938,2.9049 1.9991,2.96301 3.57573,-0.59205 8.11455,-0.49118 12.99955,-0.14124 z"
       id="path85"
       sodipodi:nodetypes="cccccc" /><path
       style="display:inline;opacity:1;fill:#784421;stroke:none;stroke-width:0.1;stroke-linecap:round;stroke-linejoin:round;stroke-dasharray:none;paint-order:markers fill stroke"
       d="m 497.92036,565.40502 c -1.41144,1.98874 6.56067,1.10188 10.05417,1.5875 0.93489,0.19403 -0.73069,-2.15289 -2.77813,-3.43959 -5.34205,-0.4764 -6.19422,0.60688 -7.27604,1.85209 z"
       id="path86"
       sodipodi:nodetypes="cccc" /><path
       style="display:inline;opacity:1;fill:#784421;stroke:none;stroke-width:0.1;stroke-linecap:round;stroke-linejoin:round;stroke-dasharray:none;paint-order:markers fill stroke"
       d="m 473.22465,513.76854 c -1.41144,1.98874 6.56067,1.10188 10.05417,1.5875 0.93489,0.19403 -0.73069,-2.15289 -2.77813,-3.43959 -5.34205,-0.4764 -6.19422,0.60688 -7.27604,1.85209 z"
       id="path87"
       sodipodi:nodetypes="cccc" /><path
       style="display:inline;opacity:1;fill:#784421;stroke:none;stroke-width:0.126146;stroke-linecap:round;stroke-linejoin:round;stroke-dasharray:none;paint-order:markers fill stroke"
       d="m 537.00994,534.81792 c -1.73194,2.57903 8.05044,1.42893 12.33723,2.05869 1.14719,0.25162 -0.89661,-2.7919 -3.40897,-4.46051 -6.55511,-0.61781 -7.60078,0.78701 -8.92826,2.40182 z"
       id="path88"
       sodipodi:nodetypes="cccc" /><path
       style="display:inline;opacity:1;fill:#784421;stroke:none;stroke-width:0.1;stroke-linecap:round;stroke-linejoin:round;stroke-dasharray:none;paint-order:markers fill stroke"
       d="m 467.18977,602.44858 c 1.41144,1.98874 -6.56067,1.10188 -10.05417,1.5875 -0.93489,0.19403 0.73069,-2.15289 2.77813,-3.43959 5.34205,-0.4764 6.19422,0.60688 7.27604,1.85209 z"
       id="path89"
       sodipodi:nodetypes="cccc" /><path
       style="display:inline;opacity:1;fill:#784421;stroke:none;stroke-width:0.126146;stroke-linecap:round;stroke-linejoin:round;stroke-dasharray:none;paint-order:markers fill stroke"
       d="m 424.35841,542.30147 c 1.73194,2.57903 -8.05044,1.42893 -12.33723,2.05869 -1.14719,0.25162 0.89661,-2.7919 3.40897,-4.46051 6.55511,-0.61781 7.60078,0.78701 8.92826,2.40182 z"
       id="path90"
       sodipodi:nodetypes="cccc" /><path
       style="display:inline;opacity:1;fill:#784421;stroke:none;stroke-width:0.1;stroke-linecap:round;stroke-linejoin:round;stroke-dasharray:none;paint-order:markers fill stroke"
       d="m 988.62386,667.38298 c -1.41144,1.98874 6.56067,1.10188 10.05417,1.5875 0.93489,0.19403 -0.73069,-2.15289 -2.77813,-3.43959 -5.34205,-0.4764 -6.19422,0.60688 -7.27604,1.85209 z"
       id="path91"
       sodipodi:nodetypes="cccc" /><path
       style="display:inline;opacity:1;fill:#784421;stroke:none;stroke-width:0.1;stroke-linecap:round;stroke-linejoin:round;stroke-dasharray:none;paint-order:markers fill stroke"
       d="m 1014.8163,611.25637 c -1.4115,1.98874 6.5606,1.10188 10.0542,1.5875 0.9348,0.19403 -0.7307,-2.15289 -2.7782,-3.43959 -5.342,-0.4764 -6.1942,0.60688 -7.276,1.85209 z"
       id="path92"
       sodipodi:nodetypes="cccc" /><path
       style="display:inline;opacity:1;fill:#784421;stroke:none;stroke-width:0.126146;stroke-linecap:round;stroke-linejoin:round;stroke-dasharray:none;paint-order:markers fill stroke"
       d="m 1021.7266,562.33459 c -1.7319,2.57903 8.0504,1.42893 12.3372,2.05869 1.1472,0.25162 -0.8966,-2.7919 -3.4089,-4.46051 -6.5551,-0.61781 -7.6008,0.78701 -8.9283,2.40182 z"
       id="path93"
       sodipodi:nodetypes="cccc" /><path
       style="display:inline;opacity:1;fill:#784421;stroke:none;stroke-width:0.1;stroke-linecap:round;stroke-linejoin:round;stroke-dasharray:none;paint-order:markers fill stroke"
       d="m 972.112,586.56067 c 1.41144,1.98874 -6.56067,1.10188 -10.05417,1.5875 -0.93489,0.19403 0.73069,-2.15289 2.77813,-3.43959 5.34205,-0.4764 6.19422,0.60688 7.27604,1.85209 z"
       id="path94"
       sodipodi:nodetypes="cccc" /><path
       style="display:inline;opacity:1;fill:#784421;stroke:none;stroke-width:0.126146;stroke-linecap:round;stroke-linejoin:round;stroke-dasharray:none;paint-order:markers fill stroke"
       d="m 909.07507,569.81814 c 1.73194,2.57903 -8.05044,1.42893 -12.33723,2.05869 -1.14719,0.25162 0.89661,-2.7919 3.40897,-4.46051 6.55511,-0.61781 7.60078,0.78701 8.92826,2.40182 z"
       id="path95"
       sodipodi:nodetypes="cccc" /><path
       style="display:inline;opacity:1;fill:#784421;stroke:none;stroke-width:0.126146;stroke-linecap:round;stroke-linejoin:round;stroke-dasharray:none;paint-order:markers fill stroke"
       d="m 961.5974,622.95132 c 1.7319,2.57903 -8.0504,1.42893 -12.3372,2.05869 -1.1472,0.25162 0.8966,-2.7919 3.4089,-4.46051 6.5551,-0.61781 7.6008,0.78701 8.9283,2.40182 z"
       id="path96"
       sodipodi:nodetypes="cccc" /><path
       style="display:inline;opacity:1;fill:#784421;stroke:none;stroke-width:0.1;stroke-linecap:round;stroke-linejoin:round;stroke-dasharray:none;paint-order:markers fill stroke"
       d="m 535.87522,568.83334 c 3.906,0.0504 2.9752,-1.6489 2.07503,-2.57535 -2.93607,-2.14914 -6.83996,-3.23821 -11.66582,-3.31743 -2.33467,0.36728 -4.59971,-0.051 -5.53478,3.85832 -0.60575,2.84814 0.76029,2.8691 2.15115,2.85454 3.53992,-0.77802 8.07781,-0.91437 12.97442,-0.82008 z"
       id="path97"
       sodipodi:nodetypes="cccccc" /><path
       style="display:inline;opacity:1;fill:#784421;stroke:none;stroke-width:0.1;stroke-linecap:round;stroke-linejoin:round;stroke-dasharray:none;paint-order:markers fill stroke"
       d="m 55.112565,550.75733 c -3.906,0.0504 -2.9752,-1.6489 -2.07503,-2.57535 2.93607,-2.14914 6.83996,-3.23821 11.66582,-3.31743 2.33467,0.36728 4.59971,-0.051 5.53478,3.85832 0.60575,2.84814 -0.76029,2.8691 -2.15115,2.85454 -3.53992,-0.77802 -8.07781,-0.91437 -12.97442,-0.82008 z"
       id="path98"
       sodipodi:nodetypes="cccccc" /><path
       style="display:inline;opacity:1;fill:#784421;stroke:none;stroke-width:0.1;stroke-linecap:round;stroke-linejoin:round;stroke-dasharray:none;paint-order:markers fill stroke"
       d="m 80.890631,666.51749 c 3.90416,0.13025 3.0083,-1.58772 2.12727,-2.53238 -2.89151,-2.20872 -6.77231,-3.3774 -11.59554,-3.55529 -2.3417,0.31946 -4.59771,-0.14502 -5.61252,3.74433 -0.66388,2.83516 0.70145,2.88405 2.09232,2.89793 3.55508,-0.70547 8.09482,-0.74899 12.98847,-0.55459 z"
       id="path99"
       sodipodi:nodetypes="cccccc" /><ellipse
       style="display:inline;opacity:1;fill:#784421;stroke:none;stroke-width:0.1;stroke-linecap:round;stroke-linejoin:round;stroke-dasharray:none;paint-order:markers fill stroke"
       id="ellipse99"
       cx="-20.928619"
       cy="607.92267"
       rx="5.051394"
       ry="1.8708867"
       transform="scale(-1,1)" /><path
       style="display:inline;opacity:1;fill:#784421;stroke:none;stroke-width:0.1;stroke-linecap:round;stroke-linejoin:round;stroke-dasharray:none;paint-order:markers fill stroke"
       d="m 110.21271,602.44669 c 1.41144,1.98874 -6.56067,1.10188 -10.05417,1.5875 -0.934886,0.19403 0.73069,-2.15289 2.77813,-3.43959 5.34205,-0.4764 6.19422,0.60688 7.27604,1.85209 z"
       id="path100"
       sodipodi:nodetypes="cccc" /><path
       style="display:inline;opacity:1;fill:#784421;stroke:none;stroke-width:0.1;stroke-linecap:round;stroke-linejoin:round;stroke-dasharray:none;paint-order:markers fill stroke"
       d="m 124.49833,550.6966 c 1.41144,1.98874 -6.56067,1.10188 -10.05417,1.5875 -0.93489,0.19403 0.73069,-2.15289 2.77813,-3.43959 5.34205,-0.4764 6.19422,0.60688 7.27604,1.85209 z"
       id="path101"
       sodipodi:nodetypes="cccc" /><path
       style="display:inline;opacity:1;fill:#784421;stroke:none;stroke-width:0.126146;stroke-linecap:round;stroke-linejoin:round;stroke-dasharray:none;paint-order:markers fill stroke"
       d="m 122.4523,493.54292 c 1.73194,2.57903 -8.05044,1.42893 -12.33723,2.05869 -1.14719,0.25162 0.89661,-2.7919 3.40897,-4.46051 6.55511,-0.61781 7.60078,0.78701 8.92826,2.40182 z"
       id="path102"
       sodipodi:nodetypes="cccc" /><path
       style="display:inline;opacity:1;fill:#784421;stroke:none;stroke-width:0.1;stroke-linecap:round;stroke-linejoin:round;stroke-dasharray:none;paint-order:markers fill stroke"
       d="m 151.11296,582.50169 c -1.41144,1.98874 6.56067,1.10188 10.05417,1.5875 0.93489,0.19403 -0.73069,-2.15289 -2.77813,-3.43959 -5.34205,-0.4764 -6.19422,0.60688 -7.27604,1.85209 z"
       id="path103"
       sodipodi:nodetypes="cccc" /><path
       style="display:inline;opacity:1;fill:#784421;stroke:none;stroke-width:0.126146;stroke-linecap:round;stroke-linejoin:round;stroke-dasharray:none;paint-order:markers fill stroke"
       d="m 51.382758,490.17533 c -1.73194,2.57903 8.05044,1.42893 12.33723,2.05869 1.14719,0.25162 -0.89661,-2.7919 -3.40897,-4.46051 -6.55511,-0.61781 -7.60078,0.78701 -8.92826,2.40182 z"
       id="path104"
       sodipodi:nodetypes="cccc" /><path
       style="display:inline;opacity:1;fill:#784421;stroke:none;stroke-width:0.1;stroke-linecap:round;stroke-linejoin:round;stroke-dasharray:none;paint-order:markers fill stroke"
       d="m 123.58702,527.55834 c -3.906,0.0504 -2.9752,-1.6489 -2.07503,-2.57535 2.93607,-2.14914 6.83996,-3.23821 11.66582,-3.31743 2.33467,0.36728 4.59971,-0.051 5.53478,3.85832 0.60575,2.84814 -0.76029,2.8691 -2.15115,2.85454 -3.53992,-0.77802 -8.07781,-0.91437 -12.97442,-0.82008 z"
       id="path105"
       sodipodi:nodetypes="cccccc" /><path
       style="display:inline;opacity:1;fill:#784421;stroke:none;stroke-width:0.1;stroke-linecap:round;stroke-linejoin:round;stroke-dasharray:none;paint-order:markers fill stroke"
       d="m 474.91388,500.93103 c -1.41144,1.98874 6.56067,1.10188 10.05417,1.5875 0.93489,0.19403 -0.73069,-2.15289 -2.77813,-3.43959 -5.34205,-0.4764 -6.19422,0.60688 -7.27604,1.85209 z"
       id="path106"
       sodipodi:nodetypes="cccc" /><path
       style="display:inline;opacity:1;fill:#784421;stroke:none;stroke-width:0.126146;stroke-linecap:round;stroke-linejoin:round;stroke-dasharray:none;paint-order:markers fill stroke"
       d="m 514.00346,470.34393 c -1.73194,2.57903 8.05044,1.42893 12.33723,2.05869 1.14719,0.25162 -0.89661,-2.7919 -3.40897,-4.46051 -6.55511,-0.61781 -7.60078,0.78701 -8.92826,2.40182 z"
       id="path107"
       sodipodi:nodetypes="cccc" /><path
       style="display:inline;opacity:1;fill:#784421;stroke:none;stroke-width:0.126146;stroke-linecap:round;stroke-linejoin:round;stroke-dasharray:none;paint-order:markers fill stroke"
       d="m 585.073,466.97634 c 1.73194,2.57903 -8.05044,1.42893 -12.33723,2.05869 -1.14719,0.25162 0.89661,-2.7919 3.40897,-4.46051 6.55511,-0.61781 7.60078,0.78701 8.92826,2.40182 z"
       id="path108"
       sodipodi:nodetypes="cccc" /><path
       style="display:inline;opacity:1;fill:#784421;stroke:none;stroke-width:0.1;stroke-linecap:round;stroke-linejoin:round;stroke-dasharray:none;paint-order:markers fill stroke"
       d="m 512.86874,504.35935 c 3.906,0.0504 2.9752,-1.6489 2.07503,-2.57535 -2.93607,-2.14914 -6.83996,-3.23821 -11.66582,-3.31743 -2.33467,0.36728 -4.59971,-0.051 -5.53478,3.85832 -0.60575,2.84814 0.76029,2.8691 2.15115,2.85454 3.53992,-0.77802 8.07781,-0.91437 12.97442,-0.82008 z"
       id="path109"
       sodipodi:nodetypes="cccccc" /><path
       style="display:inline;opacity:1;fill:#784421;stroke:none;stroke-width:0.1;stroke-linecap:round;stroke-linejoin:round;stroke-dasharray:none;paint-order:markers fill stroke"
       d="m 386.67732,677.08792 c -3.90416,0.13025 -3.0083,-1.58772 -2.12727,-2.53238 2.89151,-2.20872 6.77231,-3.3774 11.59554,-3.55529 2.3417,0.31946 4.59771,-0.14502 5.61252,3.74433 0.66388,2.83516 -0.70145,2.88405 -2.09232,2.89793 -3.55508,-0.70547 -8.09482,-0.74899 -12.98847,-0.55459 z"
       id="path110"
       sodipodi:nodetypes="cccccc" /><path
       style="display:inline;opacity:1;fill:#784421;stroke:none;stroke-width:0.1;stroke-linecap:round;stroke-linejoin:round;stroke-dasharray:none;paint-order:markers fill stroke"
       d="m 377.86812,578.10502 c -1.41144,1.98874 6.56067,1.10188 10.05417,1.5875 0.93489,0.19403 -0.73069,-2.15289 -2.77813,-3.43959 -5.34205,-0.4764 -6.19422,0.60688 -7.27604,1.85209 z"
       id="path111"
       sodipodi:nodetypes="cccc" /><path
       style="display:inline;opacity:1;fill:#784421;stroke:none;stroke-width:0.1;stroke-linecap:round;stroke-linejoin:round;stroke-dasharray:none;paint-order:markers fill stroke"
       d="m 414.91167,604.6716 c -1.41144,1.98874 6.56067,1.10188 10.05417,1.5875 0.93489,0.19403 -0.73069,-2.15289 -2.77813,-3.43959 -5.34205,-0.4764 -6.19422,0.60688 -7.27604,1.85209 z"
       id="path112"
       sodipodi:nodetypes="cccc" /><path
       style="display:inline;opacity:1;fill:#784421;stroke:none;stroke-width:0.1;stroke-linecap:round;stroke-linejoin:round;stroke-dasharray:none;paint-order:markers fill stroke"
       d="m 388.29704,636.47669 c 1.41144,1.98874 -6.56067,1.10188 -10.05417,1.5875 -0.93489,0.19403 0.73069,-2.15289 2.77813,-3.43959 5.34205,-0.4764 6.19422,0.60688 7.27604,1.85209 z"
       id="path113"
       sodipodi:nodetypes="cccc" /><path
       style="display:inline;opacity:1;fill:#784421;stroke:none;stroke-width:0.1;stroke-linecap:round;stroke-linejoin:round;stroke-dasharray:none;paint-order:markers fill stroke"
       d="m 415.82298,581.53334 c 3.906,0.0504 2.9752,-1.6489 2.07503,-2.57535 -2.93607,-2.14914 -6.83996,-3.23821 -11.66582,-3.31743 -2.33467,0.36728 -4.59971,-0.051 -5.53478,3.85832 -0.60575,2.84814 0.76029,2.8691 2.15115,2.85454 3.53992,-0.77802 8.07781,-0.91437 12.97442,-0.82008 z"
       id="path114"
       sodipodi:nodetypes="cccccc" /><path
       style="display:inline;opacity:1;fill:#784421;stroke:none;stroke-width:0.1;stroke-linecap:round;stroke-linejoin:round;stroke-dasharray:none;paint-order:markers fill stroke"
       d="m 785.15797,594.32304 c -1.4115,1.98874 6.5606,1.10188 10.0542,1.5875 0.9348,0.19403 -0.7307,-2.15289 -2.7782,-3.43959 -5.342,-0.4764 -6.1942,0.60688 -7.276,1.85209 z"
       id="path115"
       sodipodi:nodetypes="cccc" /><path
       style="display:inline;opacity:1;fill:#784421;stroke:none;stroke-width:0.126146;stroke-linecap:round;stroke-linejoin:round;stroke-dasharray:none;paint-order:markers fill stroke"
       d="m 731.93907,606.01799 c 1.7319,2.57903 -8.0504,1.42893 -12.3372,2.05869 -1.1472,0.25162 0.8966,-2.7919 3.4089,-4.46051 6.5551,-0.61781 7.6008,0.78701 8.9283,2.40182 z"
       id="path116"
       sodipodi:nodetypes="cccc" /><path
       style="display:inline;opacity:1;fill:#784421;stroke:none;stroke-width:0.1;stroke-linecap:round;stroke-linejoin:round;stroke-dasharray:none;paint-order:markers fill stroke"
       d="m 605.30926,654.45923 c -1.41144,1.98874 6.56067,1.10188 10.05417,1.5875 0.93489,0.19403 -0.73069,-2.15289 -2.77813,-3.43959 -5.34205,-0.4764 -6.19422,0.60688 -7.27604,1.85209 z"
       id="path117"
       sodipodi:nodetypes="cccc" /><path
       style="opacity:0.46;fill:#a05a2c;stroke:none;stroke-width:0.0755604;stroke-linecap:round;stroke-linejoin:round;stroke-dasharray:none;paint-order:markers fill stroke;filter:url(#filter118)"
       d="m 475.94072,487.62993 c -9.79871,30.91208 -19.35066,13.77916 -38.60334,7.43318 -27.09136,-9.89223 -32.78054,-2.32159 -89.34723,1.65305 -15.64418,2.07655 -22.71771,-10.41184 -34.30235,-23.00609 -9.36038,-9.32653 -6.23129,-18.61168 -1.22785,-19.74589 45.59162,0.0946 91.86574,5.26081 138.41662,12.48384 20.35354,4.76405 28.40418,9.82081 25.06415,21.18191 z"
       id="path118"
       sodipodi:nodetypes="ccccccc" /><path
       style="opacity:1;fill:#552200;stroke-width:0.0920238;stroke-linecap:round;stroke-linejoin:round;paint-order:markers fill stroke"
       d="m 349.48428,480.45671 c 35.80781,7.5962 70.63402,3.90409 105.46876,0.30998 6.74727,-1.19433 -13.59209,-9.03406 -20.88349,-8.21141 -13.91645,1.57012 -13.35477,-15.71 -29.32527,-8.47614 -17.40571,-5.44338 -17.73995,8.20579 -24.89565,5.28065 -15.19066,-6.20969 -44.07908,6.84434 -30.36435,11.09692 z"
       id="path69"
       sodipodi:nodetypes="ccscsc" /></g><g
     inkscape:groupmode="layer"
     id="layer3"
     inkscape:label="layer 2"
     style="display:inline"
     sodipodi:insensitive="true"><path
       style="opacity:0.46;fill:#784421;stroke:none;stroke-width:0.1;stroke-linecap:round;stroke-linejoin:round;paint-order:markers fill stroke;filter:url(#filter25)"
       d="m 728.52326,566.87865 c -39.29453,-15.77633 -91.76664,-28.25827 -142.56154,-41.15951 -11.28352,-3.4094 -7.76337,-12.85205 17.9605,-17.58633 46.89739,-7.41077 78.46529,-8.59619 126.84611,-8.60607 37.01029,0.74955 79.99774,-1.91643 110.38232,2.61924 12.68203,1.81016 24.47025,5.0504 36.29519,8.2319 6.69285,1.95177 0.003,10.63953 -3.36759,14.21874 -4.50137,4.94683 -9.78952,6.94328 -14.96708,9.35442 6.86348,2.00122 10.97314,7.90809 7.8577,8.2319 -53.91991,3.20337 -97.09464,13.3595 -138.44561,24.69571 z"
       id="path25"
       sodipodi:nodetypes="cccccccccc" /><path
       style="display:inline;opacity:1;fill:#d45500;stroke:none;stroke-width:0.1;stroke-linecap:round;stroke-linejoin:round;paint-order:markers fill stroke"
       d="m 849.00761,336.01048 c -2.51652,-17.31519 -5.37348,-27.37519 -10.94393,-39.19431 18.99821,11.90492 36.24765,10.47545 57.07443,36.32319 -19.69179,-5.6695 -33.32729,-2.03827 -46.1305,2.87112 z"
       id="path40"
       sodipodi:nodetypes="cccc" /><path
       style="display:inline;opacity:1;fill:#782121;stroke:none;stroke-width:0.1;stroke-linecap:round;stroke-linejoin:round;paint-order:markers fill stroke"
       d="m 780.38853,324.11458 c 3.13088,-12.52081 2.63132,-26.21617 -0.22878,-40.67524 l 53.32026,9.91568 c 11.16784,7.98246 13.89125,26.7897 15.52837,42.65623 -20.27758,-11.66895 -42.87706,-16.44706 -68.61985,-11.89667 z"
       id="path39"
       sodipodi:nodetypes="ccccc" /><path
       style="display:inline;opacity:1;fill:#162d50;stroke:none;stroke-width:0.1;stroke-linecap:round;stroke-linejoin:round;paint-order:markers fill stroke"
       d="m 701.14582,306.78437 c 8.44637,-20.31407 19.68335,-37.05268 39.35111,-42.98935 l 42.28206,13.0962 c 0.60725,16.58356 2.0703,33.6806 -2.39046,47.22336 -30.20301,-17.14305 -54.61858,-16.9238 -79.24271,-17.33021 z"
       id="path38"
       sodipodi:nodetypes="ccccc" /><path
       style="display:inline;opacity:1;fill:none;stroke:#552200;stroke-width:10.5;stroke-linecap:round;stroke-linejoin:round;stroke-dasharray:none;stroke-opacity:1;paint-order:markers fill stroke"
       d="M 760.32835,240.22185 695.96984,511.87459"
       id="path64"
       sodipodi:nodetypes="cc" /><path
       style="display:inline;opacity:1;fill:none;stroke:url(#linearGradient66);stroke-width:10.5;stroke-linecap:round;stroke-linejoin:round;stroke-dasharray:none;stroke-opacity:1;paint-order:markers fill stroke"
       d="M 760.32835,240.22185 695.96984,511.87459"
       id="path65"
       sodipodi:nodetypes="cc" /><path
       style="display:inline;opacity:1;fill:#782121;stroke:none;stroke-width:0.1;stroke-linecap:round;stroke-linejoin:round;paint-order:markers fill stroke"
       d="m 632.73347,286.61921 c -0.11395,-7.17174 9.19272,-17.12894 22.37486,-21.63901 l 71.3052,7.54062 c -7.54397,3.10962 -20.43283,23.30354 -25.26771,34.26355 -19.30656,-14.21649 -42.12115,-20.91576 -68.41235,-20.16516 z"
       id="path37"
       sodipodi:nodetypes="ccccc" /><path
       style="display:inline;opacity:1;fill:#162d50;stroke:none;stroke-width:0.1;stroke-linecap:round;stroke-linejoin:round;paint-order:markers fill stroke"
       d="m 589.67562,262.71471 c 15.1687,4.05179 30.32547,8.16088 43.05824,23.90513 -0.1342,-5.7782 10.98256,-16.05422 21.32812,-22.26356 -21.95119,-9.45432 -43.93029,-9.63033 -64.38636,-1.64157 z"
       id="path36"
       sodipodi:nodetypes="cccc" /><path
       id="path31"
       style="display:inline;opacity:1;fill:#ffff00;stroke:none;stroke-width:0.1;stroke-linecap:round;stroke-linejoin:round;paint-order:markers fill stroke"
       d="m 734.16604,210.56493 c -74.84172,-3.17322 -119.46335,30.3448 -144.48937,52.14875 25.23178,-4.32863 46.10914,-4.72713 59.61083,6.10299 20.99161,-0.68146 37.83691,-5.04579 78.8789,13.7914 18.24242,-0.3099 45.04741,-1.86467 82.78152,18.48776 19.60388,-1.75409 39.89482,1.9969 62.30937,16.40417 6.9046,3.65476 14.00521,8.42269 21.85345,15.56494 -11.16131,-37.49324 -30.82159,-97.07943 -126.98863,-118.75244 -11.95614,-2.09204 -23.2644,-3.29426 -33.95607,-3.74757 z"
       sodipodi:nodetypes="scccccccs" /><path
       style="display:inline;opacity:1;fill:#ff0000;stroke:none;stroke-width:0.1;stroke-linecap:round;stroke-linejoin:round;paint-order:markers fill stroke"
       d="m 649.28543,268.8177 c 30.89381,-27.66844 59.20727,-58.87321 118.70075,-54.53724 61.45789,12.73431 106.84782,43.27154 127.15316,118.86067 -7.13099,-6.12951 -11.36556,-9.73866 -21.87988,-15.63666 -16.80866,-60.47083 -46.9515,-82.4649 -105.9678,-103.19197 -21.99985,24.74395 -31.85405,46.3581 -39.12526,68.2966 -21.08259,-9.18353 -54.96708,-13.85271 -78.88097,-13.7914 z"
       id="path33"
       sodipodi:nodetypes="ccccccc" /><path
       style="display:inline;opacity:1;fill:#0000ff;stroke:none;stroke-width:0.1;stroke-linecap:round;stroke-linejoin:round;paint-order:markers fill stroke"
       d="m 810.94309,301.09717 c -1.58052,-33.72186 -14.71559,-62.62304 -43.71863,-86.87167 77.34396,21.95267 94.87767,64.25584 106.09116,103.3085 -20.20916,-11.75405 -37.23658,-17.37133 -62.37253,-16.43683 z"
       id="path34"
       sodipodi:nodetypes="cccc" /><path
       id="path35"
       style="display:inline;opacity:1;fill:#280b0b;stroke:none;stroke-width:0.1;stroke-linecap:round;stroke-linejoin:round;paint-order:markers fill stroke"
       d="m 768.54017,211.87647 c -0.70255,0.009 -1.47103,0.50141 -1.87069,1.54461 -1.505,-0.18021 -3.12724,-0.22173 -5.05189,-0.17105 l 1.14309,0.45217 c 4.05978,1.44715 7.5834,2.29128 10.14925,2.05776 l 0.80357,-0.231 c -1.32289,-0.61352 -2.52491,-1.08059 -3.71037,-1.42833 0.23513,-1.44672 -0.55968,-2.23544 -1.46296,-2.22416 z" /><ellipse
       style="display:inline;opacity:1;fill:#2b0000;stroke:none;stroke-width:0.0688636;stroke-linecap:round;stroke-linejoin:round;paint-order:markers fill stroke"
       id="path41"
       cx="873.40082"
       cy="317.54596"
       rx="0.7080878"
       ry="0.70324451" /><ellipse
       style="display:inline;opacity:1;fill:#2b0000;stroke:none;stroke-width:0.0688636;stroke-linecap:round;stroke-linejoin:round;paint-order:markers fill stroke"
       id="ellipse41"
       cx="895.00958"
       cy="332.93399"
       rx="0.7080878"
       ry="0.70324451" /><ellipse
       style="display:inline;opacity:1;fill:#2b0000;stroke:none;stroke-width:0.0688636;stroke-linecap:round;stroke-linejoin:round;paint-order:markers fill stroke"
       id="ellipse42"
       cx="848.98572"
       cy="335.88065"
       rx="0.7080878"
       ry="0.70324451" /><ellipse
       style="display:inline;opacity:1;fill:#2b0000;stroke:none;stroke-width:0.0688636;stroke-linecap:round;stroke-linejoin:round;paint-order:markers fill stroke"
       id="ellipse43"
       cx="811.01611"
       cy="301.12463"
       rx="0.7080878"
       ry="0.70324451" /><ellipse
       style="display:inline;opacity:1;fill:#2b0000;stroke:none;stroke-width:0.0688636;stroke-linecap:round;stroke-linejoin:round;paint-order:markers fill stroke"
       id="ellipse44"
       cx="780.4856"
       cy="324.08975"
       rx="0.7080878"
       ry="0.70324451" /><ellipse
       style="display:inline;opacity:1;fill:#2b0000;stroke:none;stroke-width:0.0688636;stroke-linecap:round;stroke-linejoin:round;paint-order:markers fill stroke"
       id="ellipse45"
       cx="728.14825"
       cy="282.5773"
       rx="0.7080878"
       ry="0.70324451" /><ellipse
       style="display:inline;opacity:1;fill:#2b0000;stroke:none;stroke-width:0.0688636;stroke-linecap:round;stroke-linejoin:round;paint-order:markers fill stroke"
       id="ellipse46"
       cx="701.18994"
       cy="306.72928"
       rx="0.7080878"
       ry="0.70324451" /><ellipse
       style="display:inline;opacity:1;fill:#2b0000;stroke:none;stroke-width:0.0688636;stroke-linecap:round;stroke-linejoin:round;paint-order:markers fill stroke"
       id="ellipse47"
       cx="649.31274"
       cy="268.87924"
       rx="0.7080878"
       ry="0.70324451" /><ellipse
       style="display:inline;opacity:1;fill:#2b0000;stroke:none;stroke-width:0.0688636;stroke-linecap:round;stroke-linejoin:round;paint-order:markers fill stroke"
       id="ellipse48"
       cx="632.74323"
       cy="286.41614"
       rx="0.7080878"
       ry="0.70324451" /><ellipse
       style="display:inline;opacity:1;fill:#2b0000;stroke:none;stroke-width:0.0688636;stroke-linecap:round;stroke-linejoin:round;paint-order:markers fill stroke"
       id="ellipse49"
       cx="589.97028"
       cy="262.77115"
       rx="0.7080878"
       ry="0.70324451" /><path
       style="display:inline;opacity:1;fill:#ffcc00;stroke:none;stroke-width:0.1;stroke-linecap:round;stroke-linejoin:round;paint-order:markers fill stroke"
       d="m 772.67619,484.55966 21.5152,-7.67064 c 12.92783,-9.82436 25.85766,-26.78838 28.81165,-41.90786 l -18.52179,0.74835 z"
       id="path55"
       sodipodi:nodetypes="ccccc" /><path
       id="path49"
       style="display:inline;opacity:1;fill:#552200;stroke:none;stroke-width:0.1;stroke-linecap:round;stroke-linejoin:round;paint-order:markers fill stroke"
       d="m 764.69854,350.88298 c -1.18165,-0.0205 -2.37568,0.43654 -3.36,1.67431 -28.19256,40.51834 -57.06624,80.18524 -85.94824,119.84178 -0.63574,-0.10789 -1.27272,-0.21451 -1.91048,-0.32039 l -27.31409,-6.02134 h -5.2e-4 c -0.28421,-0.10621 -0.56629,-0.21427 -0.84646,-0.32453 -5.68459,-2.04195 -7.34312,7.29287 -4.16719,8.26823 9.02864,2.56409 17.97838,5.4043 26.65677,9.19427 l -38.90977,54.12331 6.70192,1.98128 4.79816,0.0274 5.52524,-7.34064 c 27.90739,7.26528 64.2804,15.12047 83.72202,21.79557 l -6.12675,10.43864 c 0.71998,0.33149 1.64236,0.59733 2.99284,1.147 1.63202,0.61149 2.67848,1.05181 3.88219,1.41718 0.77794,-0.23809 4.69941,-1.82483 4.95783,-1.96422 10.6898,-15.76609 20.38465,-32.52724 32.07195,-47.29582 l 67.83358,14.55518 28.53108,10.85102 c 8.73084,-0.0947 9.49209,-5.49467 5.87716,-7.3303 L 861.7474,532.49669 829.92557,425.2526 869.95,362.8099 c 2.30762,-4.00811 -6.72378,-10.31451 -9.59115,-6.21771 -1.53632,2.41177 -3.07043,4.8257 -4.60282,7.24142 l -88.1357,-5.29787 c 0.72696,-1.06748 1.45534,-2.13413 2.18488,-3.20032 0.85172,-1.22932 -2.08687,-4.40016 -5.10667,-4.45244 z m -2.7621,16.04036 88.61681,5.1263 c -26.70071,42.2248 -53.11419,84.73684 -82.60013,124.1764 l -16.62172,-5.58415 -23.50089,-73.89058 c 11.75406,-16.4166 22.85404,-33.16025 34.10593,-49.82797 z m -40.04562,58.013 -0.10749,0.24908 19.01951,61.73421 -55.17596,-12.16308 27.8257,-37.76359 7.66929,-11.01379 c 0.25668,-0.34739 0.513,-0.69509 0.76895,-1.04283 z m 100.1696,12.81678 26.9875,89.82605 -70.11459,-26.9875 z m -119.39995,48.92415 40.91326,9.28109 0.44442,1.39888 1.2976,4.21163 z m -24.53339,0.15606 77.52292,27.78125 -20.24063,30.95625 -84.33593,-21.10052 z m 95.67168,20.73827 17.80718,7.09776 -20.61372,-3.4494 z"
       sodipodi:nodetypes="sccccccccccccccccccccccccccccsccccccccccccccccccccccccccccccc" /><path
       style="display:inline;opacity:1;fill:#803300;stroke:none;stroke-width:0.1;stroke-linecap:round;stroke-linejoin:round;paint-order:markers fill stroke"
       d="m 760.38212,362.30113 c 0.19682,2.10473 4.16106,-4.57284 7.23717,-3.76177 l 2.20451,-3.22875 c 0.46916,-0.74261 -1.2945,-2.73927 -3.03547,-3.70107 z"
       id="path57"
       sodipodi:nodetypes="ccccc" /><path
       style="display:inline;opacity:1;fill:#d45500;stroke:none;stroke-width:0.1;stroke-linecap:round;stroke-linejoin:round;paint-order:markers fill stroke"
       d="m 675.51334,472.00531 6.25176,-0.65011 84.363,-116.63508 c 0.55502,-0.73863 1.42454,-2.58916 0.6496,-3.11485 -2.55657,-1.35417 -4.32264,-0.51598 -5.50516,1.05394 z"
       id="path56"
       sodipodi:nodetypes="cccccc" /><path
       style="display:inline;opacity:1;fill:#803300;stroke:none;stroke-width:0.1;stroke-linecap:round;stroke-linejoin:round;paint-order:markers fill stroke"
       d="m 761.49977,361.11078 c -1.51954,2.12832 -0.87851,5.07514 0.43924,5.81566 -18.71432,28.19337 -37.46669,55.88669 -57.02287,82.73293 l -10.84792,21.03437 -6.01927,0.46302 12.23698,-16.73489 -13.69219,17.39635 -5.62239,0.13229 z"
       id="path58"
       sodipodi:nodetypes="ccccccccc" /><path
       style="display:inline;opacity:1;fill:#d45500;stroke:none;stroke-width:0.1;stroke-linecap:round;stroke-linejoin:round;paint-order:markers fill stroke"
       d="m 646.90624,475.68363 -5.73585,-1.67402 c -2.93328,-0.95159 -1.41409,-5.86366 -0.3661,-7.08618 1.12962,-1.23518 2.49945,-2.06081 4.96094,-1.02526 l 5.44876,1.27331 z"
       id="path61"
       sodipodi:nodetypes="cccccc" /><path
       style="display:inline;opacity:1;fill:#d45500;stroke:none;stroke-width:0.1;stroke-linecap:round;stroke-linejoin:round;paint-order:markers fill stroke"
       d="m 762.06717,366.93057 10.13581,0.60048 0.78135,-8.68164 -5.36607,-0.31626 c -4.96168,-1.1141 -10.20215,6.67959 -5.55109,8.39742 z"
       id="path63"
       sodipodi:nodetypes="ccccc" /><path
       style="display:inline;opacity:1;fill:#ffcc00;stroke:none;stroke-width:0.1;stroke-linecap:round;stroke-linejoin:round;paint-order:markers fill stroke"
       d="m 647.69792,475.87379 83.32244,15.99789 c 0.13593,-5.04135 -1.46947,-5.31481 3.65073,-7.21849 8.21842,12.98534 24.48863,5.36564 40.29141,-0.37888 l 82.47622,-120.79507 -84.72946,-4.75277 c -1.93325,5.8571 -3.89956,11.14211 -5.83281,17.32174 -11.01127,26.89663 -22.50396,52.96172 -38.91444,70.53244 -23.51575,29.24505 -49.47351,26.17542 -57.68683,24.59484 l -18.46034,-4.12672 c -5.47051,-1.18161 -7.89538,8.3153 -4.11692,8.82502 z"
       id="path54"
       sodipodi:nodetypes="ccccccccccc" /><path
       style="display:inline;opacity:1;fill:#803300;stroke:none;stroke-width:0.1;stroke-linecap:round;stroke-linejoin:round;paint-order:markers fill stroke"
       d="m 765.0427,503.76666 -32.54375,-11.31094 c -2.82442,-1.03839 -2.13607,-9.48478 3.50572,-7.34218 l 33.66824,11.64166 z"
       id="path53"
       sodipodi:nodetypes="ccccc" /><path
       style="display:inline;opacity:1;fill:#d45500;stroke:none;stroke-width:0.1;stroke-linecap:round;stroke-linejoin:round;paint-order:markers fill stroke"
       d="M 730.40859,566.75555 867.63488,358.60963 c 0.24304,-0.605 0.1481,-0.98469 -7.5e-4,-1.32843 -2.2725,-1.80115 -5.3486,-2.96139 -7.20914,-0.85438 -44.89097,68.03099 -91.74036,132.98447 -134.67291,204.09297 -0.5365,0.98626 -1.53873,2.64354 -2.10578,3.62873 0.87743,0.41262 5.38821,2.08961 6.76229,2.60703 z"
       id="path52"
       sodipodi:nodetypes="ccccccc" /><path
       id="path51"
       style="display:inline;opacity:1;fill:#803300;stroke:none;stroke-width:0.1;stroke-linecap:round;stroke-linejoin:round;paint-order:markers fill stroke"
       d="m 867.43646,357.15236 c -0.686,2.36933 -1.30161,3.35325 -2.05776,4.39663 L 730.40853,566.76431 c 1.54286,-0.60956 2.94435,-1.11213 4.90008,-1.92695 10.65708,-16.5943 21.47068,-31.92293 32.08449,-47.32848 18.97332,-27.53904 37.79007,-54.57475 57.42839,-83.79323 l 28.3409,95.86494 -65.1278,-25.02844 c -3.54931,-1.24826 -4.98298,3.43586 -2.69803,7.07347 l 78.43656,31.03325 c 1.75815,0.13032 6.91941,-1.09743 7.46156,-3.03703 0.68977,-3.05072 -1.40856,-3.69569 -4.26124,-4.73356 l -5.3821,-2.06809 -31.82651,-107.57386 c 13.66662,-21.81306 26.01651,-40.68127 40.10401,-62.92167 0.45299,-1.62052 -0.41597,-3.85769 -2.43238,-5.1723 z"
       sodipodi:nodetypes="ccccsccccccccccc" /><path
       style="display:inline;opacity:1;fill:#aa4400;stroke:none;stroke-width:0.1;stroke-linecap:round;stroke-linejoin:round;paint-order:markers fill stroke"
       d="m 639.22298,522.95514 5.0922,3.9605 30.10773,-41.27294 -6.61336,-2.44832 z"
       id="path60"
       sodipodi:nodetypes="ccccc" /><path
       style="display:inline;opacity:1;fill:#d45500;stroke:none;stroke-width:0.1;stroke-linecap:round;stroke-linejoin:round;paint-order:markers fill stroke"
       d="m 628.89709,537.3201 6.70612,1.97952 8.86714,-12.60159 c 2.71048,-4.14305 -0.37988,-7.38113 -2.21564,-7.95727 z"
       id="path59"
       sodipodi:nodetypes="ccccc" /><path
       style="display:inline;opacity:1;fill:#d45500;stroke:none;stroke-width:0.1;stroke-linecap:round;stroke-linejoin:round;paint-order:markers fill stroke"
       d="m 734.16618,493.03642 -6.35891,-1.78262 c -3.94689,-0.88518 -1.53637,-8.68319 2.83959,-7.57894 1.71014,0.452 3.32823,0.81194 5.13043,1.35599 -5.6462,-0.12204 -6.50679,6.41962 -1.61111,8.00557 z"
       id="path62"
       sodipodi:nodetypes="ccccc" /><path
       style="display:inline;fill:#a05a2c;stroke:none;stroke-width:0.0672731;stroke-linecap:round;stroke-linejoin:round;paint-order:markers fill stroke"
       d="m 663.20122,640.54044 c -0.28937,1.28878 -0.45489,3.56683 -0.2666,4.3012 0.73873,3.53896 3.33839,7.56926 6.11525,11.64633 1.98281,6.38405 3.37879,12.86991 10.27173,18.40204 8.0086,5.32987 13.05753,7.43144 23.3622,8.2063 8.38956,0.30905 21.01686,-0.57385 22.12003,-6.83859 0.21935,-2.01201 -0.004,-3.98138 -0.9295,-5.883 z"
       id="path19"
       sodipodi:nodetypes="cccccccc" /><path
       style="display:inline;fill:#c87137;stroke:none;stroke-width:0.0672731;stroke-linecap:round;stroke-linejoin:round;stroke-dasharray:none;paint-order:markers fill stroke"
       d="m 677.88833,668.38298 c -2.52374,-3.41567 -11.76917,-21.7944 -14.16472,-25.81203 -2.71138,-4.46514 5.53947,-9.99786 18.86311,-8.87534 6.24365,0.73239 13.8058,9.82787 14.6029,11.64339 2.85242,5.5801 7.28918,9.03464 12.03941,11.60488 11.44828,6.04965 14.96911,11.64834 15.47925,17.07576 0.14985,5.51731 -35.0987,10.61318 -46.81995,-5.63666 z"
       id="path22"
       sodipodi:nodetypes="ccccccc" /><path
       style="fill:#a05a2c;stroke:none;stroke-width:0.0672731;stroke-linecap:round;stroke-linejoin:round;paint-order:markers fill stroke"
       d="m 699.22861,632.06901 c -0.19787,1.73541 -0.25991,5.3963 0.14507,5.68729 5.62433,4.0699 12.11241,6.77463 14.79667,7.82491 5.85018,2.43682 9.07056,4.59202 11.18194,7.06293 8.43418,9.23677 16.99268,13.90577 25.13408,15.1809 5.02674,0.63025 10.4526,1.77945 18.51272,-0.82059 4.0901,-1.53269 7.02078,-2.96408 8.51317,-7.41461 0.25144,-1.61821 0.27404,-3.32429 -0.28193,-5.09815 z"
       id="path18"
       sodipodi:nodetypes="ccccccccc" /><path
       style="fill:#c87137;stroke:none;stroke-width:0.0672731;stroke-linecap:round;stroke-linejoin:round;paint-order:markers fill stroke"
       d="m 704.06941,636.78918 c -8.04013,-4.15489 -5.26709,-7.66076 2.49989,-9.55401 7.29682,-1.58546 18.33554,0.20036 23.58009,3.04791 8.87058,4.38113 17.8383,8.8058 23.37739,10.14013 10.85506,3.16513 23.84903,9.31955 23.7152,14.41892 -0.30611,5.59978 -4.29856,6.40261 -7.70235,7.97145 -15.49698,5.5824 -28.6533,-0.89668 -36.89034,-8.08867 -8.92156,-7.81574 -18.58073,-13.39186 -28.57988,-17.93573 z"
       id="path17"
       sodipodi:nodetypes="cccccccc" /><path
       style="fill:#a05a2c;stroke:none;stroke-width:0.1;stroke-linecap:round;stroke-linejoin:round;paint-order:markers fill stroke;filter:url(#filter23)"
       d="m 695.85416,638.17499 c 7.3466,3.43545 24.17254,9.47783 45.1105,9.19856 l -1.96442,-9.12056 -5.79975,-5.0514 c 0.30203,-3.70134 -0.34084,-7.63891 -0.51451,-11.45918 1.78587,0.75945 3.81196,2.09545 6.2207,4.3498 l 3.83532,7.90451 1.02899,17.53957 c -6.06009,0.71737 -12.24697,0.16687 -18.42823,-0.32742 -14.07532,-1.69362 -19.58312,-4.67237 -26.51982,-7.43678 z"
       id="path23"
       sodipodi:nodetypes="ccccccccccc"
       transform="matrix(0.72227467,0,0,0.62658543,171.65956,263.53831)" /><path
       style="fill:#a05a2c;stroke:none;stroke-width:0.1;stroke-linecap:round;stroke-linejoin:round;paint-order:markers fill stroke;filter:url(#filter23)"
       d="m 768.39814,615.6666 c 7.3466,3.43545 24.17254,9.47783 45.1105,9.19856 l -1.96442,-9.12056 -5.79975,-5.0514 c 0.30203,-3.70134 -0.34084,-7.63891 -0.51451,-11.45918 1.78587,0.75945 3.81196,2.09545 6.2207,4.3498 l 3.83532,7.90451 1.02899,17.53957 c -6.06009,0.71737 -12.24697,0.16687 -18.42823,-0.32742 -14.07532,-1.69362 -19.58312,-4.67237 -26.51982,-7.43678 z"
       id="path24"
       sodipodi:nodetypes="ccccccccccc"
       transform="matrix(0.6702228,-0.01804012,0.35278957,0.65045382,-7.9379437,262.34952)" /><path
       id="path20"
       style="fill:#a05a2c;stroke:none;stroke-width:0.0672731;stroke-linecap:round;stroke-linejoin:round;paint-order:markers fill stroke"
       d="m 690.5563,643.3538 c -2.83523,1.48487 -1.24291,2.96993 1.08129,4.4548 4.62788,0.0757 9.54252,0.36182 15.80995,1.641 2.41478,0.56847 3.62407,12.88466 -6.16789,10.5234 l -26.39818,-8.06157 c -2.39448,-1.68573 -0.32683,-2.17226 -2.77098,-3.69193 -2.10153,-1.16401 -2.30357,0.22956 -2.79374,1.06918 -1.14755,2.09706 1.16181,3.95578 5.42961,6.37394 l 28.78247,8.44042 c 0.25192,0.0393 0.50394,0.0795 0.75582,0.1185 2.20169,3.13023 2.62052,4.62455 2.12563,5.28049 -0.58555,0.93082 1.61246,3.00342 2.62765,2.56965 2.54088,-1.42418 1.11354,-5.24312 1.00926,-8.26362 0.0344,-0.0184 0.0687,-0.0373 0.10302,-0.0566 1.81686,-1.9953 3.23351,-4.08195 3.51336,-8.67485 0.10194,-3.9432 -0.69902,-6.28479 -4.59428,-9.26092 -4.73078,-2.34885 -11.85676,-2.19522 -18.51299,-2.46183 z"
       sodipodi:nodetypes="ccccccccccccccccc" /><path
       id="path21"
       style="fill:#a05a2c;stroke:none;stroke-width:0.0629239;stroke-linecap:round;stroke-linejoin:round;paint-order:markers fill stroke"
       d="m 736.06381,634.32041 c -2.64798,1.29889 -0.67561,2.50372 2.06046,3.69281 4.8452,-0.0353 10.03364,0.0987 16.84156,1.0323 2.63884,0.42278 6.47776,10.67017 -4.23453,8.90901 l -29.23413,-6.16245 c -1.70275,-0.39523 -2.4853,-0.94069 -3.98921,-1.52345 -0.96548,-0.36481 -1.81495,0.73889 -1.01229,1.36171 2.28874,1.82833 2.11795,1.17309 5.64537,3.29354 l 31.80148,6.42772 c 0.27113,0.0274 0.54253,0.0556 0.81354,0.0828 2.95248,2.56412 3.7022,3.80163 3.32302,4.35929 -0.41629,0.78888 2.31107,2.47088 3.2797,2.08747 2.35351,-1.24201 0.065,-4.39707 -0.67584,-6.91431 0.0321,-0.016 0.0638,-0.0326 0.0957,-0.0494 1.47847,-1.70297 2.52019,-3.47362 1.85123,-7.3106 -0.71867,-3.29125 -2.04444,-5.22736 -6.73199,-7.6269 -5.42818,-1.85853 -12.83224,-1.57872 -19.83402,-1.65944 z"
       sodipodi:nodetypes="scccccccccccccccss" /><path
       style="display:inline;opacity:0.46;fill:#803300;stroke:none;stroke-width:0.1;stroke-linecap:round;stroke-linejoin:round;stroke-dasharray:none;paint-order:markers fill stroke;filter:url(#filter78)"
       d="m 105.51801,618.14096 c 34.39962,18.82186 66.35411,30.30835 99.53117,45.46253 5.39985,2.26352 17.1733,6.01999 23.17066,-1.89064 l 81.97317,-12.51518 c 7.73813,-0.29117 16.3042,1.31011 22.45063,-2.61924 l 6.36103,-30.30837 C 272.90348,609.5314 215.66481,593.93022 140.69068,596.0645 c -35.45301,2.75129 -51.887647,12.16527 -35.17267,22.07646 z"
       id="path78"
       sodipodi:nodetypes="cccccccc" /><path
       style="display:inline;opacity:1;fill:#786721;stroke:none;stroke-width:0.1;stroke-linecap:round;stroke-linejoin:round;stroke-dasharray:none;paint-order:markers fill stroke"
       d="m 213.79893,412.14988 c -1.91665,-7.30045 -3.54332,-14.61124 -4.75537,-21.93687 -1.71003,-8.4045 4.04916,-16.87988 24.23332,-27.53995 18.34784,-8.8817 34.91612,-12.17247 43.48905,-3.60623 4.50378,6.07632 9.24397,11.89871 14.25763,17.42736 5.56931,6.79403 -11.65011,23.49417 -23.43529,29.49707 -23.09422,12.76818 -51.53584,14.34866 -53.78934,6.15862 z"
       id="path77"
       sodipodi:nodetypes="ccccccc" /><ellipse
       style="display:inline;opacity:0.98;fill:#552200;stroke:none;stroke-width:6.23553;stroke-linecap:round;stroke-linejoin:round;stroke-dasharray:none;paint-order:markers fill stroke"
       id="ellipse69"
       cx="191.02019"
       cy="638.97076"
       rx="9.958622"
       ry="9.8416901" /><ellipse
       style="display:inline;opacity:0.98;fill:#2b1100;stroke:none;stroke-width:4.15556;stroke-linecap:round;stroke-linejoin:round;stroke-dasharray:none;paint-order:markers fill stroke"
       id="ellipse70"
       cx="187.41527"
       cy="639.06232"
       rx="5.7583613"
       ry="7.5593143" /><ellipse
       style="display:inline;opacity:0.98;fill:#552200;stroke:none;stroke-width:6.23553;stroke-linecap:round;stroke-linejoin:round;stroke-dasharray:none;paint-order:markers fill stroke"
       id="ellipse67"
       cx="223.48369"
       cy="657.74402"
       rx="9.958622"
       ry="9.8416901" /><ellipse
       style="display:inline;opacity:0.98;fill:#2b1100;stroke:none;stroke-width:4.15556;stroke-linecap:round;stroke-linejoin:round;stroke-dasharray:none;paint-order:markers fill stroke"
       id="ellipse68"
       cx="219.87877"
       cy="657.83557"
       rx="5.7583613"
       ry="7.5593143" /><ellipse
       style="display:inline;opacity:0.98;fill:#552200;stroke:none;stroke-width:6.23553;stroke-linecap:round;stroke-linejoin:round;stroke-dasharray:none;paint-order:markers fill stroke"
       id="path66"
       cx="339.77631"
       cy="639.93677"
       rx="9.958622"
       ry="9.8416901" /><ellipse
       style="display:inline;opacity:0.98;fill:#2b1100;stroke:none;stroke-width:4.15556;stroke-linecap:round;stroke-linejoin:round;stroke-dasharray:none;paint-order:markers fill stroke"
       id="ellipse66"
       cx="336.17139"
       cy="640.02832"
       rx="5.7583613"
       ry="7.5593143" /><path
       style="display:inline;opacity:1;fill:#ff6600;stroke:none;stroke-width:0.1;stroke-linecap:round;stroke-linejoin:round;paint-order:markers fill stroke"
       d="m 309.75744,454.11183 c 4.7176,-0.32442 6.31447,0.1859 12.56771,1.91823 l 22.62188,5.68854 c 4.46687,1.24131 9.42147,5.90495 9.65729,11.54245 l 0.3638,144.39635 c -0.066,11.41485 -6.46514,16.59645 -12.93151,17.36328 l -111.125,16.72287 c -6.11148,0.99065 -14.26548,0.45715 -21.69583,-4.02287 l -23.11505,-13.3399 c -6.06314,-3.98405 -6.6462,-10.19587 -6.91516,-15.63197 l -0.13229,-140.49375 c 0.17842,-6.61654 2.64254,-14.13134 22.75416,-16.00729 z"
       id="path28"
       sodipodi:nodetypes="ccccccccccccc" /><path
       style="display:inline;opacity:1;fill:#ff9955;stroke:none;stroke-width:0.1;stroke-linecap:round;stroke-linejoin:round;paint-order:markers fill stroke"
       d="m 232.76369,479.71027 106.89167,-8.20209 -2.11667,-4.7625 -109.5375,8.20209 z"
       id="path30" /><path
       style="display:inline;opacity:0.98;fill:#ffcc00;stroke:none;stroke-width:0.1;stroke-linecap:round;stroke-linejoin:round;paint-order:markers fill stroke"
       d="m 197.83869,490.42589 0.1323,-14.2875 8.73125,-6.35 21.43125,-2.11666 c 4.78423,0.29238 5.92101,3.05576 7.60677,5.95312 3.91661,8.68085 -2.14913,12.47406 -5.6224,16.27188 -3.61869,3.42869 -8.22854,5.80321 -12.83229,6.74687 -10.19651,-1.50112 -13.28688,-3.29093 -19.44688,-6.21771 z"
       id="path42"
       sodipodi:nodetypes="cccccccc" /><path
       style="display:inline;opacity:0.98;fill:#ffcc00;stroke:none;stroke-width:0.1;stroke-linecap:round;stroke-linejoin:round;paint-order:markers fill stroke"
       d="m 318.70555,461.08 9.91571,3.55471 c 1.39725,0.50439 5.75064,6.66848 7.01582,8.88669 4.89569,6.16319 10.31285,11.45727 19.27013,10.85114 l -0.18708,-14.31226 c -0.9181,-5.01417 -5.04874,-7.98512 -9.21413,-8.58269 -3.26268,-0.34467 -6.42773,-1.37274 -9.63507,-2.10477 z"
       id="path43"
       sodipodi:nodetypes="cccccccc" /><path
       style="display:inline;opacity:1;fill:#552200;stroke:none;stroke-width:0.1;stroke-linecap:round;stroke-linejoin:round;paint-order:markers fill stroke"
       d="m 201.54596,643.29408 c -2.71693,-4.22782 -3.05243,-10.09792 -3.11195,-15.15256 L 198.96317,483.216 c 0.0254,-7.39761 7.0509,-12.88002 16.66875,-13.89063 l 123.22556,-9.13846 -7.45691,-1.87585 -120.08392,8.66225 c -12.01105,1.16169 -17.93317,8.5232 -18.00728,15.24772 l 0.0468,146.02272 c 0.0586,3.8178 0.31932,8.21527 2.55916,11.80196 z"
       id="path29"
       sodipodi:nodetypes="ccccccccccc" /><path
       style="display:inline;opacity:0.98;fill:#ffcc00;stroke:none;stroke-width:0.1;stroke-linecap:round;stroke-linejoin:round;paint-order:markers fill stroke"
       d="m 334.67624,636.16428 -0.0682,-6.33028 c -0.0257,-4.397 5.02907,-10.40738 9.0738,-11.97369 l 11.36182,-4.59452 0.14946,7.25888 c 0.62426,4.33718 -5.58757,13.38151 -9.82518,13.96813 -4.194,0.6716 -6.36499,0.98785 -10.69175,1.67148 z"
       id="path44"
       sodipodi:nodetypes="ccccccc" /><path
       style="display:inline;opacity:0.98;fill:#ffcc00;stroke:none;stroke-width:0.1;stroke-linecap:round;stroke-linejoin:round;paint-order:markers fill stroke"
       d="m 207.76057,628.27381 5.42396,2.11666 c 1.54251,0.7228 2.62994,1.28553 4.10104,1.19063 13.03014,-1.07475 17.45428,5.8352 20.30677,14.15521 0.47844,1.86159 0.83927,3.7102 -0.32866,5.05188 -5.57935,0.99276 -10.33202,1.67355 -14.83043,1.38447 -1.93616,-0.16532 -5.48349,-0.91394 -8.19039,-1.93844 -3.52704,-1.40114 -6.27129,-3.19368 -9.21494,-4.88652 -2.8915,-3.3791 -3.19779,-5.13211 -3.35277,-7.4166 -0.15118,-5.00705 3.84693,-10.47829 6.08542,-9.65729 z"
       id="path45"
       sodipodi:nodetypes="cccccccccc" /><path
       style="display:inline;opacity:0.55;mix-blend-mode:normal;fill:#552200;stroke:none;stroke-width:0.1;stroke-linecap:round;stroke-linejoin:round;paint-order:markers fill stroke;filter:url(#filter32)"
       d="m 182.6286,473.31017 23.61061,5.40791 c 4.53632,1.1848 7.25581,4.97527 7.27605,14.35365 l 0.79375,141.88281 c -0.0294,4.49027 5.07516,14.0262 10.38489,13.69218 l 125.67709,-18.58698 c -1.4727,2.00247 -5.61972,3.69538 -9.37002,4.25133 l -111.3219,16.5751 c -9.83238,1.33252 -18.51992,-3.0148 -23.13317,-5.75769 l -18.14668,-10.3577 c -3.89972,-2.176 -7.99082,-5.99934 -7.96612,-15.88449 l -0.35015,-137.34068 c -0.19297,-4.00459 0.67908,-8.69057 2.54565,-8.23544 z"
       id="path32"
       sodipodi:nodetypes="ccccccccccccc" /><path
       style="display:inline;opacity:0.98;fill:none;stroke:#aa4400;stroke-width:1.7;stroke-linecap:round;stroke-linejoin:round;stroke-dasharray:none;paint-order:markers fill stroke"
       d="m 249.21131,617.70377 -0.0161,-114.9493"
       id="path46"
       sodipodi:nodetypes="cc" /><path
       style="display:inline;opacity:0.98;fill:none;stroke:#aa4400;stroke-width:1.7;stroke-linecap:round;stroke-linejoin:round;stroke-dasharray:none;paint-order:markers fill stroke"
       d="m 273.66727,614.92564 -0.0161,-114.9493"
       id="path47"
       sodipodi:nodetypes="cc" /><path
       style="display:inline;opacity:0.98;fill:none;stroke:#aa4400;stroke-width:1.7;stroke-linecap:round;stroke-linejoin:round;stroke-dasharray:none;paint-order:markers fill stroke"
       d="m 298.73715,611.35767 -0.0161,-114.9493"
       id="path48"
       sodipodi:nodetypes="cc" /><path
       style="display:inline;opacity:0.98;fill:none;stroke:#aa4400;stroke-width:1.7;stroke-linecap:round;stroke-linejoin:round;stroke-dasharray:none;paint-order:markers fill stroke"
       d="m 323.88453,608.59949 -0.0161,-114.9493"
       id="path50"
       sodipodi:nodetypes="cc" /><path
       style="display:inline;opacity:0.98;fill:#552200;stroke:none;stroke-width:0.1;stroke-linecap:round;stroke-linejoin:round;stroke-dasharray:none;paint-order:markers fill stroke"
       d="m 252.66324,465.47658 -6.7352,0.28065 c -2.6239,-1.50135 -2.3778,-4.28341 -0.18709,-6.08039 3.87425,-3.28828 7.87206,-6.54818 20.76685,-7.76417 9.85221,-0.84275 16.07004,1.06651 20.2991,5.70619 v 4.86431 l -8.13834,0.65482 c -0.43967,-0.77909 -1.16196,-2.32229 -0.0161,-3.32651 0.74295,-0.54452 2.00143,-0.35203 3.10303,-0.6959 2.39226,-0.88682 -7.56167,-2.46405 -14.92033,-1.96444 -7.26974,0.59504 -18.86336,2.3289 -16.7912,3.92886 0.68377,0.5117 1.80045,0.92049 2.57246,0.93545 0.89499,0.0727 3.16481,3.01755 0.0468,3.46113 z"
       id="path67"
       sodipodi:nodetypes="ccccccccccccc" /><rect
       style="display:inline;opacity:0.98;fill:#552200;stroke:none;stroke-width:0.104373;stroke-linecap:round;stroke-linejoin:round;stroke-dasharray:none;paint-order:markers fill stroke"
       id="rect68"
       width="8.8867111"
       height="52.758999"
       x="289.90857"
       y="404.08676" /><path
       id="rect70"
       style="display:inline;opacity:0.98;fill:#ff6600;stroke-width:0.086346;stroke-linecap:round;stroke-linejoin:round;paint-order:markers fill stroke"
       d="m 289.90854,420.73765 c 1.1249,0.37095 0.72572,0.63761 1.77569,0.003 3.42668,-2.07112 6.30438,-3.80831 7.11102,-2.7812 v 38.88622 h -8.88671 z"
       sodipodi:nodetypes="cscccc" /><rect
       style="display:inline;opacity:0.98;fill:#aa4400;stroke:none;stroke-width:0.0386151;stroke-linecap:round;stroke-linejoin:round;stroke-dasharray:none;paint-order:markers fill stroke"
       id="rect69"
       width="1.7773418"
       height="36.108109"
       x="289.90857"
       y="420.73764" /><rect
       style="display:inline;opacity:0.98;fill:#552200;stroke:none;stroke-width:0.0758839;stroke-linecap:round;stroke-linejoin:round;stroke-dasharray:none;paint-order:markers fill stroke"
       id="rect71"
       width="8.8867111"
       height="27.888277"
       x="230.64189"
       y="433.72006" /><path
       id="path71"
       style="display:inline;opacity:0.98;fill:#d45500;stroke-width:0.0414105;stroke-linecap:round;stroke-linejoin:round;paint-order:markers fill stroke"
       d="m 230.64188,453.30337 c 1.1249,0.0853 0.72572,0.14666 1.77569,6.1e-4 3.42668,-0.47636 6.30438,-0.87593 7.11102,-0.63969 v 8.94399 h -8.88671 z"
       sodipodi:nodetypes="cscccc" /><rect
       style="display:inline;opacity:0.98;fill:#aa4400;stroke:none;stroke-width:0.0185193;stroke-linecap:round;stroke-linejoin:round;stroke-dasharray:none;paint-order:markers fill stroke"
       id="rect72"
       width="1.7773418"
       height="8.3049994"
       x="230.64189"
       y="453.30334" /><ellipse
       style="display:inline;opacity:1;fill:#786721;stroke:none;stroke-width:0.115891;stroke-linecap:round;stroke-linejoin:round;stroke-dasharray:none;paint-order:markers fill stroke"
       id="path72"
       cx="104.66861"
       cy="471.43738"
       rx="75.079376"
       ry="24.902523"
       transform="matrix(0.92828692,-0.37186476,0.33907442,0.94075956,0,0)" /><path
       id="ellipse72"
       style="display:inline;opacity:1;fill:#ffcc00;stroke:none;stroke-width:0.114048;stroke-linecap:round;stroke-linejoin:round;stroke-dasharray:none;paint-order:markers fill stroke"
       d="m 306.2605,368.17445 a 24.353263,74.350568 68.322983 0 0 -58.1551,12.67777 24.353263,74.350568 68.322983 0 0 -20.41891,9.2599 c 0.10551,0.72902 0.20311,1.56363 0.28732,2.54404 l 1.64486,6.87762 c 3.88206,8.97623 6.13755,10.63111 9.20616,15.94683 -3.79063,0.83323 -5.97603,2.4897 -9.72861,5.23843 -7.68194,3.11333 -14.07037,4.14532 -17.79064,4.51704 -13.11922,0.89736 -10.50063,2.66801 -16.07809,4.75062 -2.18204,1.01722 -4.66819,1.8884 -6.87762,2.94761 a 24.353263,74.350568 68.322983 0 0 76.51574,-6.33293 24.353263,74.350568 68.322983 0 0 60.79009,-50.13545 24.353263,74.350568 68.322983 0 0 -19.3952,-8.29148 z" /><path
       id="path73"
       style="display:inline;opacity:1;fill:#ffcc00;stroke:none;stroke-width:0.1;stroke-linecap:round;stroke-linejoin:round;stroke-dasharray:none;paint-order:markers fill stroke"
       d="m 264.076,354.10141 c -8.55959,-0.34666 -19.33175,3.0205 -30.79915,8.57157 -14.70981,7.76884 -21.75844,14.37733 -23.83782,20.6437 4.83717,0.39266 9.77482,0.65976 16.66358,-1.51206 0.34556,4.31221 1.35558,4.84781 1.8712,10.85154 l 1.64487,6.87762 c 3.88206,8.97624 6.13755,10.63111 9.20615,15.94683 -1.31438,0.28892 -2.43578,0.67701 -3.49643,1.17512 9.82989,-1.26963 21.61328,-4.77815 32.26005,-10.66447 11.78518,-6.0029 29.00457,-22.70288 23.43526,-29.49691 -5.01366,-5.52865 -9.75374,-11.35104 -14.25752,-17.42736 -3.21485,-3.21234 -7.55443,-4.75759 -12.69019,-4.96558 z m 2.76573,3.71191 c -12.68423,12.12898 -27.54649,21.44131 -48.13092,23.48384 19.23065,-6.82483 35.27259,-14.99451 48.13092,-23.48384 z" /><path
       id="path75"
       style="display:inline;opacity:1;fill:#000000;stroke:#000000;stroke-width:0.1;stroke-linecap:round;stroke-linejoin:round;stroke-dasharray:none;paint-order:markers fill stroke"
       d="m 211.50613,402.76693 c 0.7045,3.12978 1.47222,6.25754 2.29281,9.38316 2.2535,8.19005 30.69515,6.60956 53.78938,-6.15862 11.78518,-6.0029 29.00444,-22.70326 23.43512,-29.49729 -1.48304,-1.63538 -2.94187,-3.2964 -4.37801,-4.98215 -3.35214,7.78338 -14.92269,17.94419 -23.56836,22.34794 -20.01927,11.06811 -44.05687,13.72931 -51.57094,8.90696 z" /><path
       style="display:inline;opacity:1;fill:#552200;stroke-width:0.0835363;stroke-linecap:round;stroke-linejoin:round;paint-order:markers fill stroke"
       d="m 679.74251,517.08419 33.07292,0.36926 c 0.53462,-4.3178 -10.0572,-6.54305 -17.72709,-5.16977 -4.13487,0.78333 -3.41629,-2.37791 -10.05416,-0.92317 -5.13473,1.41783 -6.12233,3.43858 -5.29167,5.72368 z"
       id="path68"
       sodipodi:nodetypes="ccccc" /></g></svg>
